<svg width="117" height="25" viewBox="0 0 117 25" fill="none" xmlns="http://www.w3.org/2000/svg">
<path fill-rule="evenodd" clip-rule="evenodd" d="M17.75 21.3523L15.8075 19.4098L14.75 20.4673L17.75 23.4673L23 18.2173L21.9425 17.1598L17.75 21.3523ZM8.75 7.71729C9.16421 7.71729 9.5 7.3815 9.5 6.96729C9.5 6.55307 9.16421 6.21729 8.75 6.21729C8.33579 6.21729 8 6.55307 8 6.96729C8 7.3815 8.33579 7.71729 8.75 7.71729ZM8.75 13.7173C9.16421 13.7173 9.5 13.3815 9.5 12.9673C9.5 12.5531 9.16421 12.2173 8.75 12.2173C8.33579 12.2173 8 12.5531 8 12.9673C8 13.3815 8.33579 13.7173 8.75 13.7173ZM8.75 19.7173C9.16421 19.7173 9.5 19.3815 9.5 18.9673C9.5 18.5531 9.16421 18.2173 8.75 18.2173C8.33579 18.2173 8 18.5531 8 18.9673C8 19.3815 8.33579 19.7173 8.75 19.7173ZM18.5 3.21729H6.5C5.67157 3.21729 5 3.88886 5 4.71729V21.2173C5 22.0457 5.67157 22.7173 6.5 22.7173H12.5V21.2173H6.5V16.7173H20V4.71729C20 3.88886 19.3284 3.21729 18.5 3.21729ZM18.5 15.2173H6.5V10.7173H18.5V15.2173ZM6.5 9.21729H18.5V4.71729H6.5V9.21729Z" fill="#7C86A1"/>
<path d="M39.416 15.9793H35.342L34.642 17.9673H32.976L36.462 8.22328H38.31L41.796 17.9673H40.116L39.416 15.9793ZM38.968 14.6773L37.386 10.1553L35.79 14.6773H38.968ZM44.1237 9.23128C43.8344 9.23128 43.5917 9.13328 43.3957 8.93728C43.1997 8.74128 43.1017 8.49862 43.1017 8.20928C43.1017 7.91995 43.1997 7.67728 43.3957 7.48128C43.5917 7.28528 43.8344 7.18728 44.1237 7.18728C44.4037 7.18728 44.6417 7.28528 44.8377 7.48128C45.0337 7.67728 45.1317 7.91995 45.1317 8.20928C45.1317 8.49862 45.0337 8.74128 44.8377 8.93728C44.6417 9.13328 44.4037 9.23128 44.1237 9.23128ZM44.9077 10.2533V17.9673H43.3117V10.2533H44.9077ZM48.5991 11.3733C48.8325 10.9813 49.1405 10.678 49.5231 10.4633C49.9151 10.2393 50.3771 10.1273 50.9091 10.1273V11.7793H50.5031C49.8778 11.7793 49.4018 11.938 49.0751 12.2553C48.7578 12.5726 48.5991 13.1233 48.5991 13.9073V17.9673H47.0031V10.2533H48.5991V11.3733ZM58.2982 12.2273V13.5713H52.5442V12.2273H58.2982ZM63.6736 10.1273C64.271 10.1273 64.7983 10.2486 65.2556 10.4913C65.7223 10.7246 66.0863 11.0186 66.3476 11.3733V10.2533H67.9576V18.0933C67.9576 18.8026 67.8083 19.4326 67.5096 19.9833C67.211 20.5433 66.777 20.982 66.2076 21.2993C65.6476 21.6166 64.9756 21.7753 64.1916 21.7753C63.1463 21.7753 62.2783 21.528 61.5876 21.0333C60.897 20.548 60.505 19.8853 60.4116 19.0453H61.9936C62.115 19.4466 62.3716 19.7686 62.7636 20.0113C63.165 20.2633 63.641 20.3893 64.1916 20.3893C64.8356 20.3893 65.3536 20.1933 65.7456 19.8013C66.147 19.4093 66.3476 18.84 66.3476 18.0933V16.8053C66.077 17.1693 65.7083 17.4773 65.2416 17.7293C64.7843 17.972 64.2616 18.0933 63.6736 18.0933C63.0016 18.0933 62.3856 17.9253 61.8256 17.5893C61.275 17.244 60.8363 16.768 60.5096 16.1613C60.1923 15.5453 60.0336 14.85 60.0336 14.0753C60.0336 13.3006 60.1923 12.6146 60.5096 12.0173C60.8363 11.42 61.275 10.958 61.8256 10.6313C62.3856 10.2953 63.0016 10.1273 63.6736 10.1273ZM66.3476 14.1033C66.3476 13.5713 66.2356 13.1093 66.0116 12.7173C65.797 12.3253 65.5123 12.0266 65.1576 11.8213C64.803 11.616 64.4203 11.5133 64.0096 11.5133C63.599 11.5133 63.2163 11.616 62.8616 11.8213C62.507 12.0173 62.2176 12.3113 61.9936 12.7033C61.779 13.086 61.6716 13.5433 61.6716 14.0753C61.6716 14.6073 61.779 15.074 61.9936 15.4753C62.2176 15.8766 62.507 16.1846 62.8616 16.3993C63.2256 16.6046 63.6083 16.7073 64.0096 16.7073C64.4203 16.7073 64.803 16.6046 65.1576 16.3993C65.5123 16.194 65.797 15.8953 66.0116 15.5033C66.2356 15.102 66.3476 14.6353 66.3476 14.1033ZM69.5219 14.0753C69.5219 13.3006 69.6806 12.6146 69.9979 12.0173C70.3246 11.42 70.7632 10.958 71.3139 10.6313C71.8739 10.2953 72.4899 10.1273 73.1619 10.1273C73.7686 10.1273 74.2959 10.2486 74.7439 10.4913C75.2012 10.7246 75.5652 11.0186 75.8359 11.3733V10.2533H77.4459V17.9673H75.8359V16.8193C75.5652 17.1833 75.1966 17.4866 74.7299 17.7293C74.2632 17.972 73.7312 18.0933 73.1339 18.0933C72.4712 18.0933 71.8646 17.9253 71.3139 17.5893C70.7632 17.244 70.3246 16.768 69.9979 16.1613C69.6806 15.5453 69.5219 14.85 69.5219 14.0753ZM75.8359 14.1033C75.8359 13.5713 75.7239 13.1093 75.4999 12.7173C75.2852 12.3253 75.0006 12.0266 74.6459 11.8213C74.2912 11.616 73.9086 11.5133 73.4979 11.5133C73.0872 11.5133 72.7046 11.616 72.3499 11.8213C71.9952 12.0173 71.7059 12.3113 71.4819 12.7033C71.2672 13.086 71.1599 13.5433 71.1599 14.0753C71.1599 14.6073 71.2672 15.074 71.4819 15.4753C71.7059 15.8766 71.9952 16.1846 72.3499 16.3993C72.7139 16.6046 73.0966 16.7073 73.4979 16.7073C73.9086 16.7073 74.2912 16.6046 74.6459 16.3993C75.0006 16.194 75.2852 15.8953 75.4999 15.5033C75.7239 15.102 75.8359 14.6353 75.8359 14.1033ZM81.1382 11.3873C81.4089 11.0326 81.7775 10.734 82.2442 10.4913C82.7109 10.2486 83.2382 10.1273 83.8262 10.1273C84.4982 10.1273 85.1095 10.2953 85.6602 10.6313C86.2202 10.958 86.6589 11.42 86.9762 12.0173C87.2935 12.6146 87.4522 13.3006 87.4522 14.0753C87.4522 14.85 87.2935 15.5453 86.9762 16.1613C86.6589 16.768 86.2202 17.244 85.6602 17.5893C85.1095 17.9253 84.4982 18.0933 83.8262 18.0933C83.2382 18.0933 82.7155 17.9766 82.2582 17.7433C81.8009 17.5006 81.4275 17.202 81.1382 16.8473V21.6353H79.5422V10.2533H81.1382V11.3873ZM85.8282 14.0753C85.8282 13.5433 85.7162 13.086 85.4922 12.7033C85.2775 12.3113 84.9882 12.0173 84.6242 11.8213C84.2695 11.616 83.8869 11.5133 83.4762 11.5133C83.0749 11.5133 82.6922 11.616 82.3282 11.8213C81.9735 12.0266 81.6842 12.3253 81.4602 12.7173C81.2455 13.1093 81.1382 13.5713 81.1382 14.1033C81.1382 14.6353 81.2455 15.102 81.4602 15.5033C81.6842 15.8953 81.9735 16.194 82.3282 16.3993C82.6922 16.6046 83.0749 16.7073 83.4762 16.7073C83.8869 16.7073 84.2695 16.6046 84.6242 16.3993C84.9882 16.1846 85.2775 15.8766 85.4922 15.4753C85.7162 15.074 85.8282 14.6073 85.8282 14.0753ZM90.6265 11.3873C90.8971 11.0326 91.2658 10.734 91.7325 10.4913C92.1991 10.2486 92.7265 10.1273 93.3145 10.1273C93.9865 10.1273 94.5978 10.2953 95.1485 10.6313C95.7085 10.958 96.1471 11.42 96.4645 12.0173C96.7818 12.6146 96.9405 13.3006 96.9405 14.0753C96.9405 14.85 96.7818 15.5453 96.4645 16.1613C96.1471 16.768 95.7085 17.244 95.1485 17.5893C94.5978 17.9253 93.9865 18.0933 93.3145 18.0933C92.7265 18.0933 92.2038 17.9766 91.7465 17.7433C91.2891 17.5006 90.9158 17.202 90.6265 16.8473V21.6353H89.0305V10.2533H90.6265V11.3873ZM95.3165 14.0753C95.3165 13.5433 95.2045 13.086 94.9805 12.7033C94.7658 12.3113 94.4765 12.0173 94.1125 11.8213C93.7578 11.616 93.3751 11.5133 92.9645 11.5133C92.5631 11.5133 92.1805 11.616 91.8165 11.8213C91.4618 12.0266 91.1725 12.3253 90.9485 12.7173C90.7338 13.1093 90.6265 13.5713 90.6265 14.1033C90.6265 14.6353 90.7338 15.102 90.9485 15.5033C91.1725 15.8953 91.4618 16.194 91.8165 16.3993C92.1805 16.6046 92.5631 16.7073 92.9645 16.7073C93.3751 16.7073 93.7578 16.6046 94.1125 16.3993C94.4765 16.1846 94.7658 15.8766 94.9805 15.4753C95.2045 15.074 95.3165 14.6073 95.3165 14.0753ZM105.589 13.9213C105.589 14.2106 105.57 14.472 105.533 14.7053H99.6388C99.6854 15.3213 99.9141 15.816 100.325 16.1893C100.735 16.5626 101.239 16.7493 101.837 16.7493C102.695 16.7493 103.302 16.39 103.657 15.6713H105.379C105.145 16.3806 104.721 16.964 104.105 17.4213C103.498 17.8693 102.742 18.0933 101.837 18.0933C101.099 18.0933 100.437 17.93 99.8488 17.6033C99.2701 17.2673 98.8128 16.8006 98.4768 16.2033C98.1501 15.5966 97.9868 14.8966 97.9868 14.1033C97.9868 13.31 98.1454 12.6146 98.4628 12.0173C98.7894 11.4106 99.2421 10.944 99.8208 10.6173C100.409 10.2906 101.081 10.1273 101.837 10.1273C102.565 10.1273 103.213 10.286 103.783 10.6033C104.352 10.9206 104.795 11.3686 105.113 11.9473C105.43 12.5166 105.589 13.1746 105.589 13.9213ZM103.923 13.4173C103.913 12.8293 103.703 12.358 103.293 12.0033C102.882 11.6486 102.373 11.4713 101.767 11.4713C101.216 11.4713 100.745 11.6486 100.353 12.0033C99.9608 12.3486 99.7274 12.82 99.6528 13.4173H103.923ZM106.627 14.0753C106.627 13.3006 106.786 12.6146 107.103 12.0173C107.43 11.42 107.869 10.958 108.419 10.6313C108.979 10.2953 109.6 10.1273 110.281 10.1273C110.785 10.1273 111.28 10.2393 111.765 10.4633C112.26 10.678 112.652 10.9673 112.941 11.3313V7.60729H114.551V17.9673H112.941V16.8053C112.68 17.1786 112.316 17.4866 111.849 17.7293C111.392 17.972 110.865 18.0933 110.267 18.0933C109.595 18.0933 108.979 17.9253 108.419 17.5893C107.869 17.244 107.43 16.768 107.103 16.1613C106.786 15.5453 106.627 14.85 106.627 14.0753ZM112.941 14.1033C112.941 13.5713 112.829 13.1093 112.605 12.7173C112.391 12.3253 112.106 12.0266 111.751 11.8213C111.397 11.616 111.014 11.5133 110.603 11.5133C110.193 11.5133 109.81 11.616 109.455 11.8213C109.101 12.0173 108.811 12.3113 108.587 12.7033C108.373 13.086 108.265 13.5433 108.265 14.0753C108.265 14.6073 108.373 15.074 108.587 15.4753C108.811 15.8766 109.101 16.1846 109.455 16.3993C109.819 16.6046 110.202 16.7073 110.603 16.7073C111.014 16.7073 111.397 16.6046 111.751 16.3993C112.106 16.194 112.391 15.8953 112.605 15.5033C112.829 15.102 112.941 14.6353 112.941 14.1033Z" fill="#F9FBFF"/>
</svg>
