<svg width="101" height="31" viewBox="0 0 101 31" fill="none" xmlns="http://www.w3.org/2000/svg">
<path fill-rule="evenodd" clip-rule="evenodd" d="M62.4487 23.577C56.6487 27.86 48.2147 30.147 40.9627 30.147C30.7947 30.147 21.6397 26.387 14.7147 20.131C14.1707 19.639 14.6577 18.969 15.3107 19.351C22.7847 23.701 32.0257 26.316 41.5707 26.316C48.0087 26.316 55.0907 24.984 61.6027 22.22C62.5867 21.802 63.4087 22.864 62.4467 23.578M64.8647 20.814C64.1247 19.864 59.9647 20.366 58.0827 20.588C57.5127 20.658 57.4257 20.161 57.9387 19.804C61.2587 17.466 66.7087 18.141 67.3457 18.924C67.9827 19.707 67.1807 25.174 64.0597 27.782C63.5797 28.182 63.1237 27.969 63.3367 27.438C64.0367 25.688 65.6087 21.767 64.8647 20.814Z" fill="#5E6374"/>
<path fill-rule="evenodd" clip-rule="evenodd" d="M58.2138 3.301V1.029C58.2117 0.952929 58.2252 0.877232 58.2533 0.806536C58.2815 0.735839 58.3238 0.671626 58.3776 0.617815C58.4314 0.564004 58.4956 0.521724 58.5663 0.493559C58.637 0.465394 58.7127 0.451934 58.7888 0.454H68.9608C69.2868 0.454 69.5488 0.689001 69.5488 1.029V2.974C69.5448 3.3 69.2688 3.727 68.7828 4.402L63.5128 11.928C65.4728 11.88 67.5388 12.172 69.3148 13.173C69.7148 13.399 69.8148 13.73 69.8548 14.057V16.482C69.8548 16.812 69.4888 17.2 69.1048 17C65.9748 15.36 61.8178 15.18 58.3578 17.017C58.0048 17.209 57.6348 16.825 57.6348 16.495V14.192C57.6348 13.822 57.6388 13.192 58.0088 12.629L64.1158 3.871H58.8108C58.4848 3.871 58.2228 3.641 58.2228 3.301M21.1048 17.479H18.0108C17.7148 17.457 17.4808 17.235 17.4578 16.952V1.068C17.4578 0.750001 17.7238 0.498001 18.0538 0.498001H20.9398C21.2398 0.511001 21.4798 0.742 21.5018 1.028V3.104H21.5588C22.3118 1.097 23.7268 0.161001 25.6328 0.161001C27.5698 0.161001 28.7798 1.097 29.6508 3.104C30.4008 1.097 32.1008 0.161001 33.9258 0.161001C35.2228 0.161001 36.6418 0.696001 37.5078 1.898C38.4878 3.234 38.2878 5.176 38.2878 6.878L38.2808 16.904C38.2808 17.222 38.0148 17.479 37.6848 17.479H34.5848C34.2848 17.457 34.0278 17.209 34.0278 16.904V8.474C34.0278 7.804 34.0878 6.132 33.9408 5.497C33.7108 4.431 33.0178 4.13 32.1208 4.13C31.3708 4.13 30.5888 4.63 30.2708 5.432C29.9528 6.234 29.9838 7.574 29.9838 8.475V16.895C29.9838 17.213 29.7178 17.47 29.3878 17.47H26.2878C25.9748 17.448 25.7308 17.2 25.7308 16.895L25.7268 8.475C25.7268 6.703 26.0188 4.095 23.8198 4.095C21.5958 4.095 21.6828 6.637 21.6828 8.475V16.895C21.6828 17.213 21.4168 17.47 21.0868 17.47M78.3068 0.174C82.8988 0.174 85.3848 4.118 85.3848 9.132C85.3848 13.977 82.6378 17.82 78.3068 17.82C73.8068 17.82 71.3418 13.876 71.3418 8.962C71.3418 4.017 73.8278 0.162001 78.3068 0.162001M78.3328 3.405C76.0528 3.405 75.9078 6.513 75.9078 8.45C75.9078 10.387 75.8778 14.535 78.3058 14.535C80.7038 14.535 80.8178 11.192 80.8178 9.155C80.8178 7.815 80.7608 6.212 80.3578 4.941C80.0098 3.835 79.3178 3.404 78.3338 3.404M91.3408 17.479H88.2588C87.9588 17.457 87.7018 17.209 87.7018 16.904L87.6978 1.016C87.7238 0.724001 87.9808 0.498001 88.2938 0.498001H91.1638C91.4338 0.511001 91.6558 0.694001 91.7168 0.942001V3.372H91.7738C92.6398 1.2 93.8538 0.164001 95.9918 0.164001C97.3918 0.164001 98.7338 0.664001 99.6048 2.036C100.405 3.306 100.405 5.444 100.405 6.981V16.981C100.37 17.261 100.113 17.481 99.8088 17.481H96.7108C96.4278 17.459 96.1928 17.251 96.1628 16.981V8.354C96.1628 6.617 96.3628 4.074 94.2258 4.074C93.4728 4.074 92.7808 4.579 92.4258 5.344C91.9908 6.314 91.9338 7.281 91.9338 8.352V16.906C91.9298 17.224 91.6598 17.481 91.3288 17.481M50.1038 9.881C50.1038 11.087 50.1338 12.081 49.5238 13.163C49.0318 14.033 48.2488 14.569 47.3818 14.569C46.1938 14.569 45.4968 13.664 45.4968 12.327C45.4968 9.689 47.8608 9.21 50.1018 9.21V9.88M53.2218 17.424C53.0168 17.607 52.7218 17.62 52.4918 17.498C51.4648 16.645 51.2778 16.248 50.7158 15.435C49.0178 17.167 47.8128 17.685 45.6138 17.685C43.0068 17.685 40.9818 16.079 40.9818 12.862C40.9818 10.35 42.3398 8.64 44.2818 7.804C45.9618 7.064 48.3078 6.934 50.1018 6.729V6.329C50.1018 5.593 50.1588 4.723 49.7218 4.087C49.3478 3.517 48.6248 3.282 47.9848 3.282C46.8048 3.282 45.7548 3.887 45.4988 5.142C45.4468 5.422 45.2418 5.695 44.9588 5.708L41.9588 5.386C41.7068 5.329 41.4238 5.126 41.4988 4.736C42.1868 1.096 45.4788 0 48.4188 0C49.9248 0 51.8928 0.400001 53.0808 1.54C54.5868 2.946 54.4428 4.822 54.4428 6.864V11.687C54.4428 13.137 55.0428 13.772 55.6098 14.557C55.8058 14.837 55.8498 15.171 55.5968 15.38L53.2308 17.444L53.2268 17.434M9.53077 9.891C9.53077 11.097 9.56077 12.091 8.95077 13.173C8.45877 14.043 7.68077 14.579 6.80877 14.579C5.62077 14.579 4.92877 13.674 4.92877 12.337C4.92877 9.699 7.29277 9.22 9.52877 9.22V9.89M12.6488 17.434C12.4438 17.617 12.1488 17.63 11.9188 17.508C10.8918 16.655 10.7188 16.258 10.1428 15.445C8.44477 17.177 7.24277 17.695 5.04077 17.695C2.43877 17.696 0.410767 16.09 0.410767 12.874C0.410767 10.362 1.77277 8.652 3.71077 7.816C5.39077 7.076 7.73677 6.946 9.53077 6.741V6.341C9.53077 5.605 9.58777 4.735 9.15677 4.099C8.77677 3.529 8.05677 3.294 7.41977 3.294C6.23977 3.294 5.18677 3.899 4.91977 5.154C4.86777 5.434 4.66277 5.707 4.38477 5.72L1.38077 5.398C1.12877 5.341 0.850767 5.138 0.920767 4.748C1.61277 1.108 4.90077 0.012001 7.84077 0.012001C9.34677 0.012001 11.3148 0.412 12.5028 1.552C14.0088 2.958 13.8648 4.834 13.8648 6.876V11.699C13.8648 13.149 14.4648 13.784 15.0318 14.569C15.2318 14.849 15.2758 15.183 15.0218 15.392L12.6618 17.444L12.6518 17.434" fill="#5E6374"/>
</svg>
