<svg width="81" height="31" viewBox="0 0 81 31" fill="none" xmlns="http://www.w3.org/2000/svg">
<g clip-path="url(#clip0_1075_2825)">
<path d="M80.2516 18.1695C80.1156 18.1695 79.9916 18.2575 79.9276 18.4415C79.1076 20.7815 77.9996 22.1735 77.0876 22.1735C76.5636 22.1735 76.3516 21.5895 76.3516 20.6735C76.3516 18.3815 77.7236 13.5215 78.4156 11.3055C78.4956 11.0375 78.5476 10.7975 78.5476 10.5935C78.5476 9.94954 78.1956 9.63354 77.3236 9.63354C76.3836 9.63354 75.3716 10.0015 74.3876 11.7255C74.0476 10.2055 73.0196 9.54154 71.5836 9.54154C69.9236 9.54154 68.3196 10.6095 66.9996 12.3415C65.6796 14.0735 64.1276 14.6415 62.9596 14.3615C63.7996 12.3055 64.1116 10.7695 64.1116 9.62954C64.1116 7.84154 63.2276 6.76155 61.7996 6.76155C59.6276 6.76155 58.3756 8.83354 58.3756 11.0135C58.3756 12.6975 59.1396 14.4295 60.8196 15.2695C59.4116 18.4535 57.3556 21.3335 56.5756 21.3335C55.5676 21.3335 55.2716 16.4015 55.3276 12.8735C55.3636 10.8495 55.5316 10.7455 55.5316 10.1335C55.5316 9.78154 55.3036 9.54154 54.3876 9.54154C52.2516 9.54154 51.5916 11.3495 51.4916 13.4255C51.4593 14.2145 51.3358 14.997 51.1236 15.7575C50.2316 18.9415 48.3916 21.3575 47.1916 21.3575C46.6356 21.3575 46.4836 20.8015 46.4836 20.0735C46.4836 17.7815 47.7676 14.9175 47.7676 12.4735C47.7676 10.6775 46.9796 9.54154 45.4956 9.54154C43.7476 9.54154 41.4356 11.6215 39.2476 15.5175C39.9676 12.5335 40.2636 9.64554 38.1316 9.64554C37.6691 9.65245 37.215 9.77043 36.8076 9.98954C36.6708 10.0535 36.5565 10.1571 36.4795 10.287C36.4024 10.4168 36.3662 10.5669 36.3756 10.7175C36.5796 13.8935 33.8156 22.0295 31.1956 22.0295C30.7196 22.0295 30.4876 21.5135 30.4876 20.6815C30.4876 18.3855 31.8556 13.5375 32.5436 11.3175C32.6316 11.0295 32.6796 10.7815 32.6796 10.5655C32.6796 9.95754 32.3036 9.64554 31.4516 9.64554C30.5156 9.64554 29.4996 10.0015 28.5196 11.7255C28.1756 10.2055 27.1476 9.54154 25.7116 9.54154C23.3556 9.54154 20.7236 12.0335 19.5676 15.2815C18.0196 19.6175 14.8996 23.8055 10.6996 23.8055C6.88762 23.8055 4.87562 20.6335 4.87562 15.6215C4.87562 8.38554 10.1876 2.47355 14.1276 2.47355C16.0116 2.47355 16.9116 3.67354 16.9116 5.51355C16.9116 7.74154 15.6676 8.77754 15.6676 9.62554C15.6676 9.88554 15.8836 10.1415 16.3116 10.1415C18.0236 10.1415 20.0396 8.12954 20.0396 5.38554C20.0396 2.64154 17.8116 0.633545 13.8716 0.633545C7.35962 0.633545 0.807617 7.18554 0.807617 15.5815C0.807617 22.2615 4.10362 26.2895 9.80362 26.2895C13.6916 26.2895 17.0876 23.2655 18.9196 19.7375C19.1276 22.6615 20.4556 24.1895 22.4796 24.1895C24.2796 24.1895 25.7356 23.1175 26.8476 21.2335C27.2756 23.2055 28.4116 24.1695 29.8876 24.1695C31.5796 24.1695 32.9956 23.0975 34.3436 21.1055C34.3236 22.6695 34.6796 24.1415 36.0356 24.1415C36.6756 24.1415 37.4396 23.9935 37.5756 23.4335C39.0036 17.5295 42.5316 12.7095 43.6116 12.7095C43.9316 12.7095 44.0196 13.0175 44.0196 13.3815C44.0196 14.9855 42.8876 18.2735 42.8876 20.3735C42.8876 22.6415 43.8516 24.1415 45.8436 24.1415C48.0516 24.1415 50.2956 21.4375 51.7916 17.4855C52.2596 21.1775 53.2716 24.1575 54.8556 24.1575C56.7996 24.1575 60.2516 20.0655 62.3436 15.7335C63.1636 15.8375 64.3956 15.8095 65.5796 14.9735C65.0756 16.2495 64.7796 17.6455 64.7796 19.0415C64.7796 23.0615 66.6996 24.1895 68.3516 24.1895C70.1476 24.1895 71.6036 23.1175 72.7196 21.2335C73.0876 22.9335 74.0276 24.1655 75.7556 24.1655C78.4596 24.1655 80.8076 21.4015 80.8076 19.1335C80.8076 18.5335 80.5516 18.1695 80.2516 18.1695ZM24.1276 21.9615C23.0356 21.9615 22.6076 20.8615 22.6076 19.2215C22.6076 16.3735 24.5556 11.6175 26.6156 11.6175C27.5156 11.6175 27.8556 12.6775 27.8556 13.9735C27.8556 16.8655 26.0036 21.9615 24.1276 21.9615ZM61.5316 13.4615C60.8796 12.6855 60.6436 11.6295 60.6436 10.6895C60.6436 9.52954 61.0676 8.54954 61.5756 8.54954C62.0836 8.54954 62.2396 9.04954 62.2396 9.74554C62.2396 10.9095 61.8236 12.6095 61.5316 13.4615ZM69.9996 21.9615C68.9076 21.9615 68.4796 20.6975 68.4796 19.2215C68.4796 16.4735 70.4276 11.6175 72.5036 11.6175C73.4036 11.6175 73.7236 12.6695 73.7236 13.9735C73.7236 16.8655 71.9036 21.9615 69.9996 21.9615Z" fill="#5E6374"/>
</g>
<defs>
<clipPath id="clip0_1075_2825">
<rect width="80" height="30" fill="white" transform="translate(0.807617 0.0734863)"/>
</clipPath>
</defs>
</svg>
