<svg width="112" height="25" viewBox="0 0 112 25" fill="none" xmlns="http://www.w3.org/2000/svg">
<path d="M3.39975 15.9332C1.55774 15.9405 0.0562479 14.4244 0.0488793 12.5496C0.0415111 10.6749 1.53111 9.16552 3.3549 9.15835C5.17867 9.15119 6.68016 10.6673 6.68746 12.5235C6.69475 14.3797 5.24178 15.926 3.39975 15.9332ZM20.554 0.0324961C18.092 0.042173 18.9909 2.15864 15.2338 2.1734C11.4403 2.18831 11.122 0.0734979 8.87875 0.0823148C7.03673 0.0895546 5.56545 1.61742 5.57274 3.47358C5.58004 5.32975 7.08152 6.84592 8.9053 6.83875C11.3857 6.829 11.4868 4.71255 15.2437 4.69778C19.0372 4.68287 18.3556 6.79768 20.5989 6.78886C22.4409 6.78162 23.9122 5.25377 23.9049 3.3976C23.8976 1.54144 22.3961 0.0252561 20.554 0.0324961ZM20.6252 18.1301C18.1449 18.1399 18.0437 20.2563 14.2867 20.2711C10.4933 20.286 10.1749 18.1712 7.93165 18.18C6.08962 18.1873 4.61834 19.7151 4.62563 21.5713C4.63293 23.4274 6.13442 24.9437 7.9582 24.9365C10.4385 24.9267 10.5397 22.8102 14.2967 22.7955C18.0901 22.7805 18.4084 24.8954 20.6517 24.8866C22.4938 24.8794 23.965 23.3515 23.9577 21.4953C23.9504 19.6391 22.4673 18.1229 20.6252 18.1301ZM25.5139 9.07126C23.0153 9.08108 23.1153 11.3081 19.9783 11.3204C17.0785 11.3318 17.0333 9.12309 14.243 9.13406C12.5104 9.14087 11.0941 10.7613 11.1011 12.5247C11.108 14.288 12.5551 15.8972 14.4336 15.8899C16.9322 15.88 16.8323 13.653 19.9692 13.6407C22.869 13.6293 22.9142 15.838 25.7046 15.8271C27.4371 15.8203 28.8534 14.1998 28.8465 12.4364C28.8577 10.6729 27.4106 9.06381 25.5139 9.07126Z" fill="url(#paint0_linear_1731_5734)"/>
<path d="M49.9475 18.4228C48.9241 20.1784 47.0803 21.4883 44.9776 21.4966C41.2799 21.5111 38.9541 18.6687 38.9408 15.296C38.9276 11.9233 41.6265 9.17691 44.9432 9.16387C47.046 9.15561 48.8995 10.3353 49.9367 12.0827C50.0078 12.2272 49.9661 12.4011 49.8254 12.4885C49.6845 12.5759 47.4739 13.8873 47.4739 13.8873C47.3331 13.9747 47.1635 13.9175 47.0784 13.7876C46.6098 13.0946 45.846 12.6488 44.9569 12.6523C43.5455 12.6579 42.407 13.8348 42.4127 15.2823C42.4184 16.7298 43.5661 17.8978 44.9775 17.8923C45.8525 17.8888 46.6269 17.4371 47.09 16.7405C47.174 16.5953 47.3573 16.5512 47.4988 16.6231C47.4988 16.6231 49.7197 17.9315 49.8612 18.0034C49.9885 18.0898 50.0315 18.2777 49.9475 18.4228ZM80.6588 4.18876C79.6568 4.1927 78.8415 5.03547 78.8456 6.06319C78.8496 7.09092 79.6715 7.92726 80.6735 7.92332C81.6756 7.91938 82.4908 7.07661 82.4867 6.04888C82.4827 5.02116 81.6609 4.18482 80.6588 4.18876ZM82.3588 9.39317C82.3581 9.21947 82.2165 9.08974 82.0612 9.09035C82.0612 9.09035 79.4503 9.10062 79.295 9.10123C79.1398 9.10184 78.9992 9.24714 78.9998 9.40637L79.045 20.914C79.0457 21.0877 79.1874 21.2174 79.3426 21.2168L82.1088 21.206C82.2782 21.2053 82.4046 21.06 82.404 20.9008L82.3588 9.39317ZM109.224 4.07649C108.222 4.08042 107.407 4.9232 107.411 5.95092C107.415 6.97865 108.237 7.81498 109.239 7.81105C110.241 7.80711 111.056 6.96434 111.052 5.93661C111.048 4.90888 110.226 4.07255 109.224 4.07649ZM110.924 9.28089C110.923 9.1072 110.782 8.97747 110.627 8.97808C110.627 8.97808 108.016 8.98834 107.861 8.98895C107.705 8.98957 107.564 9.13487 107.565 9.2941L107.61 20.8017C107.611 20.9754 107.752 21.1052 107.908 21.1046L110.674 21.0937C110.843 21.093 110.97 20.9477 110.969 20.7885L110.924 9.28089ZM55.0421 3.97099C55.0414 3.79729 54.8998 3.66757 54.7445 3.66818C54.7445 3.66818 52.1336 3.67844 51.9783 3.67905C51.8231 3.67966 51.6825 3.82496 51.6831 3.98419L51.75 21.0213C51.7507 21.195 51.8924 21.3247 52.0476 21.3241L54.8138 21.3132C54.9832 21.3126 55.1096 21.1673 55.109 21.0081L55.0421 3.97099ZM92.6602 9.0487C92.6602 9.0487 90.4303 9.05746 90.1339 9.05862C89.767 9.06007 89.7661 8.82847 89.7653 8.62582C89.7582 6.81644 89.7731 7.01904 92.5675 7.00805C92.7228 7.00744 92.8493 6.87667 92.8486 6.71744C92.8486 6.71744 92.8383 4.09746 92.8377 3.93824C92.8371 3.77901 92.8361 3.53294 92.4833 3.53432C90.4933 3.54214 86.413 3.16735 86.4067 8.74034C86.4068 8.75482 86.408 9.07327 86.1682 9.07421C85.6178 9.07637 84.3899 9.0812 84.3899 9.0812C84.2206 9.08187 84.094 9.22711 84.0947 9.38634L84.1059 12.2379C84.1066 12.4116 84.2483 12.5413 84.4035 12.5407L86.1395 12.5339C86.3793 12.533 86.4216 12.5328 86.4227 12.8078L86.4545 20.8849C86.4552 21.0586 86.5969 21.1883 86.7521 21.1877L89.5182 21.1768C89.6876 21.1762 89.8141 21.0309 89.8134 20.8717L89.7816 12.7801C89.7806 12.5196 89.8653 12.5193 90.0911 12.5184L92.6738 12.5082C92.8432 12.5076 92.9696 12.3623 92.969 12.2031C92.969 12.2031 92.9585 9.52521 92.9578 9.35151C92.9571 9.17781 92.8296 9.04803 92.6602 9.0487ZM68.3585 9.44819L68.4037 20.9558C68.4044 21.1295 68.2637 21.2604 68.1085 21.261L65.3564 21.2718C65.0459 21.273 65.0584 20.8677 65.0584 20.8677C65.0578 20.694 64.9163 20.5932 64.7754 20.6806C64.7754 20.6806 63.8186 21.4081 62.4497 21.4135C58.8931 21.4275 56.4835 18.8025 56.4692 15.1692C56.4559 11.7965 59.1127 9.0937 62.3165 9.08111C63.6713 9.07578 64.7465 9.72294 64.7465 9.72294C64.9021 9.80918 65.057 9.70725 65.0564 9.54802C65.0564 9.54802 65.0406 9.14278 65.3511 9.14156L68.0608 9.13091C68.2303 9.14471 68.3578 9.27449 68.3585 9.44819ZM65.0361 15.1934C65.0303 13.717 63.8684 12.5346 62.443 12.5402C61.0175 12.5458 59.8649 13.7373 59.8707 15.2137C59.8765 16.6902 61.0384 17.8726 62.4639 17.867C63.8893 17.8614 65.0419 16.6699 65.0361 15.1934ZM73.542 21.2251L70.7476 21.2361C70.5782 21.2368 70.4507 21.0926 70.45 20.9333L70.4048 9.42567C70.4041 9.25197 70.5306 9.1212 70.7 9.12054L73.5227 9.10944C73.8331 9.10822 73.8206 9.51358 73.8206 9.51358C73.8212 9.65832 73.9344 9.74473 74.0614 9.71528C74.1318 9.70053 74.3008 9.59854 74.4276 9.55462C74.8644 9.36472 75.6398 9.13007 77.0652 9.12447C77.418 9.12308 77.4189 9.36915 77.4196 9.52838C77.4202 9.68761 77.4304 12.2931 77.4304 12.2931C77.4311 12.4523 77.3046 12.5831 77.1494 12.5837C74.6513 12.5935 73.8903 12.886 73.7967 14.2037L73.8373 20.949C73.8379 21.0937 73.6973 21.2245 73.542 21.2251ZM105.476 9.30231L105.521 20.8099C105.522 20.9836 105.381 21.1145 105.226 21.1151L102.474 21.1259C102.164 21.1271 102.177 20.7218 102.177 20.7218C102.176 20.5481 102.034 20.4473 101.893 20.5347C101.893 20.5347 100.936 21.2623 99.5674 21.2676C96.0108 21.2816 93.6013 18.6566 93.587 15.0233C93.5737 11.6507 96.2305 8.94781 99.4342 8.93522C100.789 8.92989 101.864 9.57705 101.864 9.57705C102.02 9.66329 102.175 9.56136 102.174 9.40213C102.174 9.40213 102.159 8.99689 102.469 8.99567L105.179 8.98502C105.348 8.99883 105.475 9.12861 105.476 9.30231ZM102.154 15.0475C102.149 13.5711 100.986 12.3887 99.5607 12.3943C98.1353 12.3999 96.9827 13.5914 96.9885 15.0678C96.9943 16.5443 98.1563 17.7268 99.5816 17.7212C101.007 17.7156 102.16 16.524 102.154 15.0475Z" fill="white"/>
<defs>
<linearGradient id="paint0_linear_1731_5734" x1="5.48633" y1="23.5001" x2="26.4863" y2="0.000121844" gradientUnits="userSpaceOnUse">
<stop offset="0.135" stop-color="#76BDFF"/>
<stop offset="0.605" stop-color="#B8FFA7"/>
<stop offset="1" stop-color="#F692FF"/>
</linearGradient>
</defs>
</svg>
