<svg width="68" height="25" viewBox="0 0 68 25" fill="none" xmlns="http://www.w3.org/2000/svg">
<path fill-rule="evenodd" clip-rule="evenodd" d="M20 17.4673C19.4703 17.4699 18.9515 17.6177 18.5 17.8948L16.1825 15.5698C17.2877 14.0108 17.2877 11.9238 16.1825 10.3648L18.5 8.03979C18.9515 8.31683 19.4703 8.4647 20 8.46729C21.6569 8.46729 23 7.12414 23 5.46729C23 3.81043 21.6569 2.46729 20 2.46729C18.3431 2.46729 17 3.81043 17 5.46729C17.0026 5.99698 17.1505 6.51581 17.4275 6.96729L15.1025 9.28479C13.5435 8.17959 11.4565 8.17959 9.8975 9.28479L7.5725 6.96729C7.84955 6.51581 7.99741 5.99698 8 5.46729C8 3.81043 6.65685 2.46729 5 2.46729C3.34315 2.46729 2 3.81043 2 5.46729C2 7.12414 3.34315 8.46729 5 8.46729C5.52969 8.4647 6.04853 8.31683 6.5 8.03979L8.8175 10.3648C7.7123 11.9238 7.7123 14.0108 8.8175 15.5698L6.5 17.8948C6.04853 17.6177 5.52969 17.4699 5 17.4673C3.34315 17.4673 2 18.8104 2 20.4673C2 22.1241 3.34315 23.4673 5 23.4673C6.65685 23.4673 8 22.1241 8 20.4673C7.99741 19.9376 7.84955 19.4188 7.5725 18.9673L9.8975 16.6498C11.4565 17.755 13.5435 17.755 15.1025 16.6498L17.4275 18.9673C17.1505 19.4188 17.0026 19.9376 17 20.4673C17 22.1241 18.3431 23.4673 20 23.4673C21.6569 23.4673 23 22.1241 23 20.4673C23 18.8104 21.6569 17.4673 20 17.4673ZM12.5 15.9673C10.8431 15.9673 9.5 14.6241 9.5 12.9673C9.5 11.3104 10.8431 9.96729 12.5 9.96729C14.1569 9.96729 15.5 11.3104 15.5 12.9673C15.5 13.7629 15.1839 14.526 14.6213 15.0886C14.0587 15.6512 13.2956 15.9673 12.5 15.9673Z" fill="#7C86A1"/>
<path d="M35.146 9.52528V12.3813H38.506V13.6833H35.146V16.6653H38.926V17.9673H33.55V8.22328H38.926V9.52528H35.146ZM40.3598 14.0753C40.3598 13.3006 40.5185 12.6146 40.8358 12.0173C41.1625 11.42 41.6011 10.958 42.1518 10.6313C42.7118 10.2953 43.3325 10.1273 44.0138 10.1273C44.5178 10.1273 45.0125 10.2393 45.4978 10.4633C45.9925 10.678 46.3845 10.9673 46.6738 11.3313V7.60729H48.2838V17.9673H46.6738V16.8053C46.4125 17.1786 46.0485 17.4866 45.5818 17.7293C45.1245 17.972 44.5971 18.0933 43.9998 18.0933C43.3278 18.0933 42.7118 17.9253 42.1518 17.5893C41.6011 17.244 41.1625 16.768 40.8358 16.1613C40.5185 15.5453 40.3598 14.85 40.3598 14.0753ZM46.6738 14.1033C46.6738 13.5713 46.5618 13.1093 46.3378 12.7173C46.1231 12.3253 45.8385 12.0266 45.4838 11.8213C45.1291 11.616 44.7465 11.5133 44.3358 11.5133C43.9251 11.5133 43.5425 11.616 43.1878 11.8213C42.8331 12.0173 42.5438 12.3113 42.3198 12.7033C42.1051 13.086 41.9978 13.5433 41.9978 14.0753C41.9978 14.6073 42.1051 15.074 42.3198 15.4753C42.5438 15.8766 42.8331 16.1846 43.1878 16.3993C43.5518 16.6046 43.9345 16.7073 44.3358 16.7073C44.7465 16.7073 45.1291 16.6046 45.4838 16.3993C45.8385 16.194 46.1231 15.8953 46.3378 15.5033C46.5618 15.102 46.6738 14.6353 46.6738 14.1033ZM53.4881 10.1273C54.0854 10.1273 54.6127 10.2486 55.0701 10.4913C55.5367 10.7246 55.9007 11.0186 56.1621 11.3733V10.2533H57.7721V18.0933C57.7721 18.8026 57.6227 19.4326 57.3241 19.9833C57.0254 20.5433 56.5914 20.982 56.0221 21.2993C55.4621 21.6166 54.7901 21.7753 54.0061 21.7753C52.9607 21.7753 52.0927 21.528 51.4021 21.0333C50.7114 20.548 50.3194 19.8853 50.2261 19.0453H51.8081C51.9294 19.4466 52.1861 19.7686 52.5781 20.0113C52.9794 20.2633 53.4554 20.3893 54.0061 20.3893C54.6501 20.3893 55.1681 20.1933 55.5601 19.8013C55.9614 19.4093 56.1621 18.84 56.1621 18.0933V16.8053C55.8914 17.1693 55.5227 17.4773 55.0561 17.7293C54.5987 17.972 54.0761 18.0933 53.4881 18.0933C52.8161 18.0933 52.2001 17.9253 51.6401 17.5893C51.0894 17.244 50.6507 16.768 50.3241 16.1613C50.0067 15.5453 49.8481 14.85 49.8481 14.0753C49.8481 13.3006 50.0067 12.6146 50.3241 12.0173C50.6507 11.42 51.0894 10.958 51.6401 10.6313C52.2001 10.2953 52.8161 10.1273 53.4881 10.1273ZM56.1621 14.1033C56.1621 13.5713 56.0501 13.1093 55.8261 12.7173C55.6114 12.3253 55.3267 12.0266 54.9721 11.8213C54.6174 11.616 54.2347 11.5133 53.8241 11.5133C53.4134 11.5133 53.0307 11.616 52.6761 11.8213C52.3214 12.0173 52.0321 12.3113 51.8081 12.7033C51.5934 13.086 51.4861 13.5433 51.4861 14.0753C51.4861 14.6073 51.5934 15.074 51.8081 15.4753C52.0321 15.8766 52.3214 16.1846 52.6761 16.3993C53.0401 16.6046 53.4227 16.7073 53.8241 16.7073C54.2347 16.7073 54.6174 16.6046 54.9721 16.3993C55.3267 16.194 55.6114 15.8953 55.8261 15.5033C56.0501 15.102 56.1621 14.6353 56.1621 14.1033ZM66.9384 13.9213C66.9384 14.2106 66.9197 14.472 66.8824 14.7053H60.9884C61.035 15.3213 61.2637 15.816 61.6744 16.1893C62.085 16.5626 62.589 16.7493 63.1864 16.7493C64.045 16.7493 64.6517 16.39 65.0064 15.6713H66.7284C66.495 16.3806 66.0704 16.964 65.4544 17.4213C64.8477 17.8693 64.0917 18.0933 63.1864 18.0933C62.449 18.0933 61.7864 17.93 61.1984 17.6033C60.6197 17.2673 60.1624 16.8006 59.8264 16.2033C59.4997 15.5966 59.3364 14.8966 59.3364 14.1033C59.3364 13.31 59.495 12.6146 59.8124 12.0173C60.139 11.4106 60.5917 10.944 61.1704 10.6173C61.7584 10.2906 62.4304 10.1273 63.1864 10.1273C63.9144 10.1273 64.563 10.286 65.1324 10.6033C65.7017 10.9206 66.145 11.3686 66.4624 11.9473C66.7797 12.5166 66.9384 13.1746 66.9384 13.9213ZM65.2724 13.4173C65.263 12.8293 65.053 12.358 64.6424 12.0033C64.2317 11.6486 63.723 11.4713 63.1164 11.4713C62.5657 11.4713 62.0944 11.6486 61.7024 12.0033C61.3104 12.3486 61.077 12.82 61.0024 13.4173H65.2724Z" fill="#F9FBFF"/>
</svg>
