<svg width="80" height="25" viewBox="0 0 80 25" fill="none" xmlns="http://www.w3.org/2000/svg">
<path fill-rule="evenodd" clip-rule="evenodd" d="M19.8717 10.8043C19.1882 7.27239 16.0974 4.72031 12.5 4.71729V6.21729C15.3778 6.22115 17.85 8.26208 18.3988 11.087L18.593 12.0965L19.6047 12.2803C21.7045 12.6604 23.1681 14.5786 22.9802 16.7042C22.7923 18.8297 21.0149 20.4615 18.881 20.4673H12.5V21.9673H18.881C21.7911 21.9609 24.2162 19.7366 24.4732 16.8378C24.7303 13.9391 22.7346 11.3227 19.871 10.8043H19.8717ZM6.5 18.9673H11V20.4673H6.5V18.9673ZM3.5 18.9673H5V20.4673H3.5V18.9673ZM5 15.9673H11V17.4673H5V15.9673ZM2 15.9673H3.5V17.4673H2V15.9673ZM6.5 12.9673H11V14.4673H6.5V12.9673ZM3.5 12.9673H5V14.4673H3.5V12.9673ZM8 9.96729H11V11.4673H8V9.96729ZM5 9.96729H6.5V11.4673H5V9.96729ZM9.5 6.96729H11V8.46729H9.5V6.96729Z" fill="#7C86A1"/>
<path d="M41.32 8.23728V17.9673H39.724V13.7113H35.146V17.9673H33.55V8.23728H35.146V12.4093H39.724V8.23728H41.32ZM50.3651 10.2533L45.6331 21.5933H43.9811L45.5491 17.8413L42.5111 10.2533H44.2891L46.4591 16.1333L48.7131 10.2533H50.3651ZM53.1655 11.4013C53.4362 11.028 53.8049 10.7246 54.2715 10.4913C54.7475 10.2486 55.2749 10.1273 55.8535 10.1273C56.5349 10.1273 57.1509 10.2906 57.7015 10.6173C58.2522 10.944 58.6862 11.4106 59.0035 12.0173C59.3209 12.6146 59.4795 13.3006 59.4795 14.0753C59.4795 14.85 59.3209 15.5453 59.0035 16.1613C58.6862 16.768 58.2475 17.244 57.6875 17.5893C57.1369 17.9253 56.5255 18.0933 55.8535 18.0933C55.2562 18.0933 54.7242 17.9766 54.2575 17.7433C53.8002 17.51 53.4362 17.2113 53.1655 16.8473V17.9673H51.5695V7.60729H53.1655V11.4013ZM57.8555 14.0753C57.8555 13.5433 57.7435 13.086 57.5195 12.7033C57.3049 12.3113 57.0155 12.0173 56.6515 11.8213C56.2969 11.616 55.9142 11.5133 55.5035 11.5133C55.1022 11.5133 54.7195 11.616 54.3555 11.8213C54.0009 12.0266 53.7115 12.3253 53.4875 12.7173C53.2729 13.1093 53.1655 13.5713 53.1655 14.1033C53.1655 14.6353 53.2729 15.102 53.4875 15.5033C53.7115 15.8953 54.0009 16.194 54.3555 16.3993C54.7195 16.6046 55.1022 16.7073 55.5035 16.7073C55.9142 16.7073 56.2969 16.6046 56.6515 16.3993C57.0155 16.1846 57.3049 15.8766 57.5195 15.4753C57.7435 15.074 57.8555 14.6073 57.8555 14.0753ZM62.6538 11.3733C62.8871 10.9813 63.1951 10.678 63.5778 10.4633C63.9698 10.2393 64.4318 10.1273 64.9638 10.1273V11.7793H64.5578C63.9325 11.7793 63.4565 11.938 63.1298 12.2553C62.8125 12.5726 62.6538 13.1233 62.6538 13.9073V17.9673H61.0578V10.2533H62.6538V11.3733ZM67.2429 9.23128C66.9535 9.23128 66.7109 9.13328 66.5149 8.93728C66.3189 8.74128 66.2209 8.49862 66.2209 8.20928C66.2209 7.91995 66.3189 7.67728 66.5149 7.48128C66.7109 7.28528 66.9535 7.18728 67.2429 7.18728C67.5229 7.18728 67.7609 7.28528 67.9569 7.48128C68.1529 7.67728 68.2509 7.91995 68.2509 8.20928C68.2509 8.49862 68.1529 8.74128 67.9569 8.93728C67.7609 9.13328 67.5229 9.23128 67.2429 9.23128ZM68.0269 10.2533V17.9673H66.4309V10.2533H68.0269ZM69.5903 14.0753C69.5903 13.3006 69.7489 12.6146 70.0663 12.0173C70.3929 11.42 70.8316 10.958 71.3823 10.6313C71.9423 10.2953 72.5629 10.1273 73.2443 10.1273C73.7483 10.1273 74.2429 10.2393 74.7283 10.4633C75.2229 10.678 75.6149 10.9673 75.9043 11.3313V7.60729H77.5143V17.9673H75.9043V16.8053C75.6429 17.1786 75.2789 17.4866 74.8123 17.7293C74.3549 17.972 73.8276 18.0933 73.2303 18.0933C72.5583 18.0933 71.9423 17.9253 71.3823 17.5893C70.8316 17.244 70.3929 16.768 70.0663 16.1613C69.7489 15.5453 69.5903 14.85 69.5903 14.0753ZM75.9043 14.1033C75.9043 13.5713 75.7923 13.1093 75.5683 12.7173C75.3536 12.3253 75.0689 12.0266 74.7143 11.8213C74.3596 11.616 73.9769 11.5133 73.5663 11.5133C73.1556 11.5133 72.7729 11.616 72.4183 11.8213C72.0636 12.0173 71.7743 12.3113 71.5503 12.7033C71.3356 13.086 71.2283 13.5433 71.2283 14.0753C71.2283 14.6073 71.3356 15.074 71.5503 15.4753C71.7743 15.8766 72.0636 16.1846 72.4183 16.3993C72.7823 16.6046 73.1649 16.7073 73.5663 16.7073C73.9769 16.7073 74.3596 16.6046 74.7143 16.3993C75.0689 16.194 75.3536 15.8953 75.5683 15.5033C75.7923 15.102 75.9043 14.6353 75.9043 14.1033Z" fill="#F9FBFF"/>
</svg>
