<svg width="30" height="25" viewBox="0 0 30 25" fill="none" xmlns="http://www.w3.org/2000/svg">
<path d="M3.95203 15.9332C2.11001 15.9405 0.608525 14.4244 0.601156 12.5496C0.593788 10.6749 2.08339 9.16552 3.90717 9.15835C5.73095 9.15119 7.23244 10.6673 7.23973 12.5235C7.24703 14.3797 5.79406 15.926 3.95203 15.9332ZM21.1063 0.0324961C18.6442 0.0421731 18.5432 2.15864 14.7861 2.1734C10.9926 2.18831 10.6743 0.0734979 8.43103 0.0823148C6.58901 0.0895546 5.11772 1.61742 5.12502 3.47358C5.13231 5.32975 6.63379 6.84592 8.45758 6.83875C10.938 6.829 11.039 4.71255 14.796 4.69778C18.5895 4.68287 18.9079 6.79768 21.1512 6.78886C22.9932 6.78162 24.4645 5.25377 24.4572 3.3976C24.4499 1.54144 22.9484 0.0252561 21.1063 0.0324961ZM21.1774 18.1301C18.6972 18.1399 18.596 20.2563 14.839 20.2711C11.0455 20.286 10.7271 18.1712 8.48393 18.18C6.6419 18.1873 5.17061 19.7151 5.17791 21.5713C5.1852 23.4274 6.6867 24.9437 8.51048 24.9365C10.9908 24.9267 11.092 22.8102 14.8489 22.7955C18.6424 22.7805 18.9607 24.8954 21.204 24.8866C23.0461 24.8794 24.5173 23.3515 24.51 21.4953C24.5027 19.6391 23.0195 18.1229 21.1774 18.1301ZM26.0662 9.07126C23.5676 9.08108 23.6676 11.3081 20.5306 11.3204C17.6308 11.3318 17.5856 9.12309 14.7952 9.13406C13.0627 9.14087 11.6464 10.7613 11.6533 12.5247C11.6603 14.288 13.1074 15.8972 14.9859 15.8899C17.4845 15.88 17.3846 13.653 20.5215 13.6407C23.4213 13.6293 23.4665 15.838 26.2568 15.8271C27.9894 15.8203 29.4057 14.1998 29.3987 12.4364C29.41 10.6729 27.9629 9.06381 26.0662 9.07126Z" fill="#5BB6F6"/>
</svg>
