<svg width="24" height="24" viewBox="0 0 24 24" fill="none" xmlns="http://www.w3.org/2000/svg">
<path d="M6.30713 18.692C6.71615 19.1082 7.42714 19.0934 7.82407 18.6989L12.4972 14.0244L17.1763 18.6954C17.5802 19.0986 18.2747 19.1064 18.6837 18.6903C19.1085 18.2741 19.1006 17.5808 18.6889 17.1777L14.0193 12.5049L18.6889 7.84337C19.1006 7.43852 19.1085 6.73738 18.6837 6.3308C18.2747 5.91464 17.5802 5.92249 17.1763 6.3239L12.4972 10.9933L7.82407 6.32218C7.42714 5.92594 6.71615 5.91291 6.30713 6.32735C5.89197 6.73566 5.90502 7.44541 6.30195 7.84165L10.9846 12.5049L6.30195 17.1794C5.90502 17.5756 5.89197 18.2758 6.30713 18.692Z" fill="white"/>
</svg>
