<svg width="148" height="29" viewBox="0 0 148 29" fill="none" xmlns="http://www.w3.org/2000/svg">
<path d="M90.6287 5.3715V23.7577H95.8174V5.3715H90.6287ZM49.8051 5.34033V23.7421H55.0405V9.45386L59.1229 9.46944C60.4629 9.46944 61.3978 9.79665 62.0366 10.4822C62.8625 11.3548 63.1897 12.7727 63.1897 15.3437V23.7421H68.2693V13.583C68.2693 6.32197 63.6415 5.34033 59.1229 5.34033H49.8051ZM98.996 5.3715V23.7577H107.41C111.898 23.7577 113.362 23.0098 114.936 21.3426C116.058 20.1739 116.775 17.5874 116.775 14.7672C116.775 12.1806 116.167 9.87456 115.092 8.44106C113.191 5.8701 110.417 5.3715 106.273 5.3715H98.996ZM104.138 9.36037H106.366C109.607 9.36037 111.695 10.8094 111.695 14.5802C111.695 18.3509 109.607 19.8156 106.366 19.8156H104.138V9.36037ZM83.1496 5.3715L78.8179 19.9402L74.6733 5.3715H69.0639L74.9849 23.7577H82.464L88.4473 5.3715H83.1496ZM119.205 23.7577H124.394V5.3715H119.205V23.7577ZM133.758 5.3715L126.513 23.7421H131.624L132.777 20.4856H141.347L142.437 23.7265H148L140.692 5.3715H133.758ZM137.124 8.72152L140.271 17.3225H133.883L137.124 8.72152Z" fill="#5E6374"/>
<path d="M16.3205 8.42518V5.90098C16.5698 5.8854 16.8191 5.86981 17.0684 5.86981C23.9866 5.65167 28.5208 11.822 28.5208 11.822C28.5208 11.822 23.6282 18.6155 18.3772 18.6155C17.6761 18.6155 16.9905 18.5064 16.336 18.2883V10.6222C19.0317 10.9494 19.577 12.1336 21.1819 14.8292L24.7812 11.8064C24.7812 11.8064 22.148 8.36286 17.7228 8.36286C17.2554 8.34728 16.7879 8.37844 16.3205 8.42518ZM16.3205 0.0734863V3.84422L17.0684 3.79747C26.6822 3.47026 32.9615 11.6817 32.9615 11.6817C32.9615 11.6817 25.7629 20.4385 18.2682 20.4385C17.6137 20.4385 16.9749 20.3762 16.336 20.2671V22.6044C16.8658 22.6667 17.4112 22.7134 17.9409 22.7134C24.9215 22.7134 29.9699 19.1453 34.8625 14.9383C35.6727 15.5927 38.9916 17.1664 39.6772 17.852C35.0339 21.7474 24.2047 24.8793 18.0656 24.8793C17.4735 24.8793 16.9126 24.8481 16.3516 24.7858V28.0735H42.8714V0.0734863L16.3205 0.0734863ZM16.3205 18.2883V20.2827C9.86971 19.1297 8.07784 12.4141 8.07784 12.4141C8.07784 12.4141 11.1786 8.98612 16.3205 8.42518V10.6066H16.3049C13.6093 10.2794 11.4902 12.8036 11.4902 12.8036C11.4902 12.8036 12.69 17.0573 16.3205 18.2883ZM4.86804 12.1336C4.86804 12.1336 8.68552 6.49307 16.336 5.90098V3.84422C7.85969 4.5298 0.536377 11.6973 0.536377 11.6973C0.536377 11.6973 4.68106 23.6951 16.3205 24.7858V22.6044C7.78179 21.5448 4.86804 12.1336 4.86804 12.1336Z" fill="#5E6374"/>
</svg>
