<svg width="127" height="25" viewBox="0 0 127 25" fill="none" xmlns="http://www.w3.org/2000/svg">
<path fill-rule="evenodd" clip-rule="evenodd" d="M3.5 9.46729H2C2.00455 5.32703 5.35975 1.97183 9.5 1.96729V3.46729C6.188 3.47142 3.50413 6.15529 3.5 9.46729ZM5.75 9.46729H7.25C7.25124 8.22516 8.25787 7.21853 9.5 7.21729V5.71729C7.42996 5.71976 5.75248 7.39725 5.75 9.46729ZM14 6.46729H15.5V7.96729H14V6.46729ZM18.5 6.46729H20V7.96729H18.5V6.46729ZM15.5 10.9673H14V12.4673H15.5V10.9673ZM18.5 10.9673H20V12.4673H18.5V10.9673ZM15.5 15.4673H14V16.9673H15.5V15.4673ZM18.5 15.4673H20V16.9673H18.5V15.4673ZM12.5 2.46729H21.5C22.3281 2.46811 22.9992 3.1392 23 3.96729V23.4673H2V12.9673C2.00083 12.1392 2.67192 11.4681 3.5 11.4673H11V3.96729C11.0008 3.1392 11.6719 2.46811 12.5 2.46729ZM7.25 21.9673V16.7173H10.25V21.9673H7.25ZM11.75 21.9673H21.5V3.96729H12.5V12.9673H3.5V21.9673H5.75V15.9673C5.75 15.5531 6.08579 15.2173 6.5 15.2173H11C11.4142 15.2173 11.75 15.5531 11.75 15.9673V21.9673Z" fill="#7C86A1"/>
<path d="M37.988 18.0653C37.0827 18.0653 36.2473 17.8553 35.482 17.4353C34.726 17.006 34.124 16.4133 33.676 15.6573C33.2373 14.892 33.018 14.0333 33.018 13.0813C33.018 12.1293 33.2373 11.2753 33.676 10.5193C34.124 9.76328 34.726 9.17528 35.482 8.75528C36.2473 8.32595 37.0827 8.11128 37.988 8.11128C38.9027 8.11128 39.738 8.32595 40.494 8.75528C41.2593 9.17528 41.8613 9.76328 42.3 10.5193C42.7387 11.2753 42.958 12.1293 42.958 13.0813C42.958 14.0333 42.7387 14.892 42.3 15.6573C41.8613 16.4133 41.2593 17.006 40.494 17.4353C39.738 17.8553 38.9027 18.0653 37.988 18.0653ZM37.988 16.6793C38.632 16.6793 39.206 16.5346 39.71 16.2453C40.214 15.9466 40.606 15.5266 40.886 14.9853C41.1753 14.4346 41.32 13.8 41.32 13.0813C41.32 12.3626 41.1753 11.7326 40.886 11.1913C40.606 10.65 40.214 10.2346 39.71 9.94528C39.206 9.65595 38.632 9.51128 37.988 9.51128C37.344 9.51128 36.77 9.65595 36.266 9.94528C35.762 10.2346 35.3653 10.65 35.076 11.1913C34.796 11.7326 34.656 12.3626 34.656 13.0813C34.656 13.8 34.796 14.4346 35.076 14.9853C35.3653 15.5266 35.762 15.9466 36.266 16.2453C36.77 16.5346 37.344 16.6793 37.988 16.6793ZM48.4205 10.1273C49.0272 10.1273 49.5685 10.2533 50.0445 10.5053C50.5298 10.7573 50.9078 11.1306 51.1785 11.6253C51.4492 12.12 51.5845 12.7173 51.5845 13.4173V17.9673H50.0025V13.6553C50.0025 12.9646 49.8298 12.4373 49.4845 12.0733C49.1392 11.7 48.6678 11.5133 48.0705 11.5133C47.4732 11.5133 46.9972 11.7 46.6425 12.0733C46.2972 12.4373 46.1245 12.9646 46.1245 13.6553V17.9673H44.5285V10.2533H46.1245V11.1353C46.3858 10.818 46.7172 10.5706 47.1185 10.3933C47.5292 10.216 47.9632 10.1273 48.4205 10.1273ZM59.5423 12.2273V13.5713H53.7883V12.2273H59.5423ZM63.4058 11.3873C63.6764 11.0326 64.0451 10.734 64.5118 10.4913C64.9784 10.2486 65.5058 10.1273 66.0938 10.1273C66.7658 10.1273 67.3771 10.2953 67.9278 10.6313C68.4878 10.958 68.9264 11.42 69.2438 12.0173C69.5611 12.6146 69.7198 13.3006 69.7198 14.0753C69.7198 14.85 69.5611 15.5453 69.2438 16.1613C68.9264 16.768 68.4878 17.244 67.9278 17.5893C67.3771 17.9253 66.7658 18.0933 66.0938 18.0933C65.5058 18.0933 64.9831 17.9766 64.5258 17.7433C64.0684 17.5006 63.6951 17.202 63.4058 16.8473V21.6353H61.8098V10.2533H63.4058V11.3873ZM68.0958 14.0753C68.0958 13.5433 67.9838 13.086 67.7598 12.7033C67.5451 12.3113 67.2558 12.0173 66.8918 11.8213C66.5371 11.616 66.1544 11.5133 65.7438 11.5133C65.3424 11.5133 64.9598 11.616 64.5958 11.8213C64.2411 12.0266 63.9518 12.3253 63.7278 12.7173C63.5131 13.1093 63.4058 13.5713 63.4058 14.1033C63.4058 14.6353 63.5131 15.102 63.7278 15.5033C63.9518 15.8953 64.2411 16.194 64.5958 16.3993C64.9598 16.6046 65.3424 16.7073 65.7438 16.7073C66.1544 16.7073 66.5371 16.6046 66.8918 16.3993C67.2558 16.1846 67.5451 15.8766 67.7598 15.4753C67.9838 15.074 68.0958 14.6073 68.0958 14.0753ZM72.894 11.3733C73.1274 10.9813 73.4354 10.678 73.818 10.4633C74.21 10.2393 74.672 10.1273 75.204 10.1273V11.7793H74.798C74.1727 11.7793 73.6967 11.938 73.37 12.2553C73.0527 12.5726 72.894 13.1233 72.894 13.9073V17.9673H71.298V10.2533H72.894V11.3733ZM83.7411 13.9213C83.7411 14.2106 83.7224 14.472 83.6851 14.7053H77.7911C77.8378 15.3213 78.0664 15.816 78.4771 16.1893C78.8878 16.5626 79.3918 16.7493 79.9891 16.7493C80.8478 16.7493 81.4544 16.39 81.8091 15.6713H83.5311C83.2978 16.3806 82.8731 16.964 82.2571 17.4213C81.6504 17.8693 80.8944 18.0933 79.9891 18.0933C79.2518 18.0933 78.5891 17.93 78.0011 17.6033C77.4224 17.2673 76.9651 16.8006 76.6291 16.2033C76.3024 15.5966 76.1391 14.8966 76.1391 14.1033C76.1391 13.31 76.2978 12.6146 76.6151 12.0173C76.9418 11.4106 77.3944 10.944 77.9731 10.6173C78.5611 10.2906 79.2331 10.1273 79.9891 10.1273C80.7171 10.1273 81.3658 10.286 81.9351 10.6033C82.5044 10.9206 82.9478 11.3686 83.2651 11.9473C83.5824 12.5166 83.7411 13.1746 83.7411 13.9213ZM82.0751 13.4173C82.0658 12.8293 81.8558 12.358 81.4451 12.0033C81.0344 11.6486 80.5258 11.4713 79.9191 11.4713C79.3684 11.4713 78.8971 11.6486 78.5051 12.0033C78.1131 12.3486 77.8798 12.82 77.8051 13.4173H82.0751ZM94.6497 10.1273C95.2564 10.1273 95.7977 10.2533 96.2737 10.5053C96.7591 10.7573 97.1371 11.1306 97.4077 11.6253C97.6877 12.12 97.8277 12.7173 97.8277 13.4173V17.9673H96.2457V13.6553C96.2457 12.9646 96.0731 12.4373 95.7277 12.0733C95.3824 11.7 94.9111 11.5133 94.3137 11.5133C93.7164 11.5133 93.2404 11.7 92.8857 12.0733C92.5404 12.4373 92.3677 12.9646 92.3677 13.6553V17.9673H90.7857V13.6553C90.7857 12.9646 90.6131 12.4373 90.2677 12.0733C89.9224 11.7 89.4511 11.5133 88.8537 11.5133C88.2564 11.5133 87.7804 11.7 87.4257 12.0733C87.0804 12.4373 86.9077 12.9646 86.9077 13.6553V17.9673H85.3117V10.2533H86.9077V11.1353C87.1691 10.818 87.5004 10.5706 87.9017 10.3933C88.3031 10.216 88.7324 10.1273 89.1897 10.1273C89.8057 10.1273 90.3564 10.258 90.8417 10.5193C91.3271 10.7806 91.7004 11.1586 91.9617 11.6533C92.1951 11.1866 92.5591 10.818 93.0537 10.5473C93.5484 10.2673 94.0804 10.1273 94.6497 10.1273ZM100.671 9.23128C100.381 9.23128 100.139 9.13328 99.9426 8.93728C99.7466 8.74128 99.6486 8.49862 99.6486 8.20928C99.6486 7.91995 99.7466 7.67728 99.9426 7.48128C100.139 7.28528 100.381 7.18728 100.671 7.18728C100.951 7.18728 101.189 7.28528 101.385 7.48128C101.581 7.67728 101.679 7.91995 101.679 8.20928C101.679 8.49862 101.581 8.74128 101.385 8.93728C101.189 9.13328 100.951 9.23128 100.671 9.23128ZM101.455 10.2533V17.9673H99.8586V10.2533H101.455ZM106.35 18.0933C105.743 18.0933 105.197 17.986 104.712 17.7713C104.236 17.5473 103.858 17.2486 103.578 16.8753C103.298 16.4926 103.149 16.068 103.13 15.6013H104.782C104.81 15.928 104.964 16.2033 105.244 16.4273C105.533 16.642 105.893 16.7493 106.322 16.7493C106.77 16.7493 107.115 16.6653 107.358 16.4973C107.61 16.32 107.736 16.096 107.736 15.8253C107.736 15.536 107.596 15.3213 107.316 15.1813C107.045 15.0413 106.611 14.8873 106.014 14.7193C105.435 14.5606 104.964 14.4066 104.6 14.2573C104.236 14.108 103.919 13.8793 103.648 13.5713C103.387 13.2633 103.256 12.8573 103.256 12.3533C103.256 11.9426 103.377 11.5693 103.62 11.2333C103.863 10.888 104.208 10.6173 104.656 10.4213C105.113 10.2253 105.636 10.1273 106.224 10.1273C107.101 10.1273 107.806 10.3513 108.338 10.7993C108.879 11.238 109.169 11.84 109.206 12.6053H107.61C107.582 12.26 107.442 11.9846 107.19 11.7793C106.938 11.574 106.597 11.4713 106.168 11.4713C105.748 11.4713 105.426 11.5506 105.202 11.7093C104.978 11.868 104.866 12.078 104.866 12.3393C104.866 12.5446 104.941 12.7173 105.09 12.8573C105.239 12.9973 105.421 13.1093 105.636 13.1933C105.851 13.268 106.168 13.366 106.588 13.4873C107.148 13.6366 107.605 13.7906 107.96 13.9493C108.324 14.0986 108.637 14.3226 108.898 14.6213C109.159 14.92 109.295 15.3166 109.304 15.8113C109.304 16.25 109.183 16.642 108.94 16.9873C108.697 17.3326 108.352 17.6033 107.904 17.7993C107.465 17.9953 106.947 18.0933 106.35 18.0933ZM118.099 13.9213C118.099 14.2106 118.08 14.472 118.043 14.7053H112.149C112.195 15.3213 112.424 15.816 112.835 16.1893C113.245 16.5626 113.749 16.7493 114.347 16.7493C115.205 16.7493 115.812 16.39 116.167 15.6713H117.889C117.655 16.3806 117.231 16.964 116.615 17.4213C116.008 17.8693 115.252 18.0933 114.347 18.0933C113.609 18.0933 112.947 17.93 112.359 17.6033C111.78 17.2673 111.323 16.8006 110.987 16.2033C110.66 15.5966 110.497 14.8966 110.497 14.1033C110.497 13.31 110.655 12.6146 110.973 12.0173C111.299 11.4106 111.752 10.944 112.331 10.6173C112.919 10.2906 113.591 10.1273 114.347 10.1273C115.075 10.1273 115.723 10.286 116.293 10.6033C116.862 10.9206 117.305 11.3686 117.623 11.9473C117.94 12.5166 118.099 13.1746 118.099 13.9213ZM116.433 13.4173C116.423 12.8293 116.213 12.358 115.803 12.0033C115.392 11.6486 114.883 11.4713 114.277 11.4713C113.726 11.4713 113.255 11.6486 112.863 12.0033C112.471 12.3486 112.237 12.82 112.163 13.4173H116.433ZM122.469 18.0933C121.862 18.0933 121.316 17.986 120.831 17.7713C120.355 17.5473 119.977 17.2486 119.697 16.8753C119.417 16.4926 119.268 16.068 119.249 15.6013H120.901C120.929 15.928 121.083 16.2033 121.363 16.4273C121.652 16.642 122.012 16.7493 122.441 16.7493C122.889 16.7493 123.234 16.6653 123.477 16.4973C123.729 16.32 123.855 16.096 123.855 15.8253C123.855 15.536 123.715 15.3213 123.435 15.1813C123.164 15.0413 122.73 14.8873 122.133 14.7193C121.554 14.5606 121.083 14.4066 120.719 14.2573C120.355 14.108 120.038 13.8793 119.767 13.5713C119.506 13.2633 119.375 12.8573 119.375 12.3533C119.375 11.9426 119.496 11.5693 119.739 11.2333C119.982 10.888 120.327 10.6173 120.775 10.4213C121.232 10.2253 121.755 10.1273 122.343 10.1273C123.22 10.1273 123.925 10.3513 124.457 10.7993C124.998 11.238 125.288 11.84 125.325 12.6053H123.729C123.701 12.26 123.561 11.9846 123.309 11.7793C123.057 11.574 122.716 11.4713 122.287 11.4713C121.867 11.4713 121.545 11.5506 121.321 11.7093C121.097 11.868 120.985 12.078 120.985 12.3393C120.985 12.5446 121.06 12.7173 121.209 12.8573C121.358 12.9973 121.54 13.1093 121.755 13.1933C121.97 13.268 122.287 13.366 122.707 13.4873C123.267 13.6366 123.724 13.7906 124.079 13.9493C124.443 14.0986 124.756 14.3226 125.017 14.6213C125.278 14.92 125.414 15.3166 125.423 15.8113C125.423 16.25 125.302 16.642 125.059 16.9873C124.816 17.3326 124.471 17.6033 124.023 17.7993C123.584 17.9953 123.066 18.0933 122.469 18.0933Z" fill="#F9FBFF"/>
</svg>
