<svg width="115" height="27" viewBox="0 0 115 27" fill="none" xmlns="http://www.w3.org/2000/svg">
<g clip-path="url(#clip0_1075_2816)">
<path d="M22.2813 0.0734909C19.7697 0.0713254 17.314 0.831921 15.2247 2.25906C13.1354 3.6862 11.5064 5.71577 10.5438 8.09102C9.58124 10.4663 9.32829 13.0805 9.81697 15.6029C10.3057 18.1254 11.514 20.4428 13.2892 22.262C15.0644 24.0812 17.3266 25.3204 19.7897 25.8229C22.2529 26.3254 24.8062 26.0686 27.1268 25.085C29.4473 24.1014 31.4308 22.4351 32.8264 20.297C34.2219 18.159 34.9668 15.6451 34.9668 13.0735C34.9675 11.367 34.64 9.67713 34.0028 8.10028C33.3657 6.52344 32.4315 5.09053 31.2535 3.88337C30.0756 2.67621 28.6769 1.71843 27.1375 1.06473C25.598 0.411035 23.9479 0.0742096 22.2813 0.0734909ZM22.2813 16.3221C21.6537 16.3227 21.04 16.1326 20.5179 15.776C19.9958 15.4193 19.5887 14.9121 19.3481 14.3186C19.1076 13.725 19.0444 13.0717 19.1665 12.4414C19.2886 11.811 19.5906 11.2319 20.0342 10.7773C20.4778 10.3227 21.0431 10.0131 21.6586 9.88748C22.2742 9.76191 22.9122 9.82608 23.4921 10.0719C24.072 10.3177 24.5677 10.7341 24.9164 11.2684C25.2652 11.8027 25.4513 12.4309 25.4513 13.0735C25.4513 13.5001 25.3693 13.9225 25.2098 14.3167C25.0504 14.7108 24.8167 15.069 24.5221 15.3706C24.2274 15.6723 23.8777 15.9116 23.4928 16.0748C23.1078 16.2381 22.6952 16.3221 22.2786 16.3221H22.2813ZM0 13.0735C0 12.431 0.186077 11.8029 0.534701 11.2686C0.883325 10.7344 1.37884 10.318 1.95858 10.0721C2.53832 9.82626 3.17625 9.76193 3.7917 9.88728C4.40715 10.0126 4.97247 10.322 5.41619 10.7764C5.8599 11.2307 6.16207 11.8095 6.28449 12.4397C6.40692 13.0699 6.34409 13.7231 6.10395 14.3167C5.86381 14.9103 5.45716 15.4177 4.9354 15.7746C4.41365 16.1316 3.80024 16.3221 3.17273 16.3221C2.33127 16.3221 1.52427 15.9799 0.929271 15.3706C0.334269 14.7614 0 13.9351 0 13.0735Z" fill="#5E6374"/>
<path d="M65.1706 10.5857C65.6121 10.575 66.0511 10.6567 66.4607 10.8258C66.8703 10.995 67.2419 11.2479 67.5527 11.5692C67.8635 11.8905 68.107 12.2734 68.2682 12.6944C68.4294 13.1154 68.505 13.5657 68.4903 14.0177C68.4903 14.1299 68.4743 14.3872 68.4582 14.4994C68.4489 14.5882 68.4092 14.6707 68.346 14.7323C68.2829 14.794 68.2005 14.8307 68.1134 14.836H63.4786C63.4866 15.0699 63.5395 15.2999 63.6344 15.5128C63.7293 15.7257 63.8643 15.9174 64.0316 16.0768C64.199 16.2362 64.3954 16.3602 64.6096 16.4418C64.8239 16.5233 65.0518 16.5608 65.2802 16.552C65.8436 16.5611 66.3923 16.3674 66.8305 16.0046C66.8588 15.9686 66.8946 15.9396 66.9353 15.9197C66.976 15.8997 67.0205 15.8894 67.0657 15.8894C67.1108 15.8894 67.1553 15.8997 67.196 15.9197C67.2367 15.9396 67.2726 15.9686 67.3009 16.0046L67.9103 16.8257C67.9432 16.8573 67.9688 16.896 67.9853 16.939C68.0018 16.982 68.0087 17.0282 68.0057 17.0743C68.0026 17.1204 67.9896 17.1652 67.9675 17.2055C67.9455 17.2458 67.915 17.2806 67.8782 17.3074C67.1291 17.9668 66.1718 18.3256 65.1839 18.3173C63.0242 18.3173 61.5194 16.552 61.5194 14.4337C61.5194 12.3154 63.0269 10.5857 65.1706 10.5857ZM66.507 13.5223C66.4856 13.1641 66.3277 12.8289 66.0672 12.5888C65.8067 12.3487 65.4646 12.223 65.1145 12.2387C64.2377 12.2387 63.6738 12.7861 63.5802 13.5223H66.5204H66.507ZM84.0412 7.73115H76.6854C76.6067 7.73115 76.5313 7.76316 76.4756 7.82013C76.42 7.8771 76.3887 7.95437 76.3887 8.03494V9.35137C76.3887 9.43194 76.42 9.5092 76.4756 9.56618C76.5313 9.62315 76.6067 9.65515 76.6854 9.65515H79.3423V17.8657C79.3477 17.9458 79.3829 18.0207 79.4405 18.0752C79.4981 18.1296 79.5739 18.1594 79.6523 18.1585H81.1091C81.1869 18.1558 81.2608 18.1229 81.3159 18.0665C81.371 18.0101 81.4031 17.9344 81.4058 17.8547V9.64421H84.0626C84.1413 9.64421 84.2168 9.6122 84.2724 9.55523C84.328 9.49826 84.3593 9.42099 84.3593 9.34042V8.03494C84.3593 7.99411 84.3513 7.95369 84.3357 7.9161C84.3202 7.87851 84.2974 7.84452 84.2687 7.81617C84.24 7.78781 84.206 7.76567 84.1687 7.75106C84.1315 7.73645 84.0918 7.72968 84.0519 7.73115H84.0412ZM95.1204 10.5884C94.5167 10.5875 93.9177 10.6959 93.3509 10.9086V8.08147C93.3472 7.99119 93.311 7.90551 93.2493 7.84086C93.1877 7.77621 93.1049 7.73714 93.0168 7.73115H91.7472C91.6601 7.73993 91.5789 7.77987 91.5178 7.84396C91.4567 7.90804 91.4196 7.99215 91.4131 8.08147V17.8055C91.4164 17.898 91.4538 17.9859 91.5177 18.0514C91.5817 18.1168 91.6675 18.1551 91.7579 18.1585H92.4822C92.5739 18.1585 92.6619 18.1214 92.727 18.0553C92.7921 17.9892 92.829 17.8994 92.8297 17.8055V17.2307C93.1304 17.5794 93.5009 17.8577 93.916 18.0466C94.3311 18.2355 94.7811 18.3306 95.2353 18.3255C97.2133 18.3364 98.6299 16.5712 98.6299 14.4419C98.6299 12.2853 97.2747 10.5857 95.1311 10.5857L95.1204 10.5884ZM94.9493 16.5082C94.6118 16.5246 94.2773 16.4352 93.9907 16.2518C93.7042 16.0684 93.4791 15.7998 93.3456 15.4819V12.8326C93.7991 12.5545 94.3191 12.4105 94.8478 12.4166C96.0372 12.4166 96.6493 13.4101 96.6493 14.4556C96.6493 15.501 96.0853 16.5055 94.9573 16.5055L94.9493 16.5082ZM107.205 10.5884C107.646 10.5777 108.085 10.6595 108.495 10.8286C108.904 10.9977 109.276 11.2507 109.587 11.572C109.897 11.8933 110.141 12.2761 110.302 12.6972C110.463 13.1182 110.539 13.5684 110.524 14.0204C110.524 14.1326 110.508 14.3899 110.492 14.5021C110.483 14.5909 110.443 14.6734 110.38 14.7351C110.317 14.7967 110.234 14.8334 110.147 14.8387H105.521C105.529 15.0726 105.581 15.3026 105.676 15.5156C105.771 15.7285 105.906 15.9201 106.074 16.0795C106.241 16.2389 106.437 16.363 106.652 16.4445C106.866 16.5261 107.094 16.5635 107.322 16.5547C107.886 16.5638 108.434 16.3701 108.872 16.0074C108.901 15.9714 108.937 15.9424 108.977 15.9224C109.018 15.9025 109.063 15.8921 109.108 15.8921C109.153 15.8921 109.197 15.9025 109.238 15.9224C109.279 15.9424 109.315 15.9714 109.343 16.0074L109.952 16.8284C109.985 16.86 110.011 16.8988 110.027 16.9417C110.044 16.9847 110.051 17.031 110.048 17.077C110.045 17.1231 110.032 17.1679 110.01 17.2082C109.988 17.2485 109.957 17.2833 109.92 17.3101C109.171 17.9695 108.214 18.3283 107.226 18.32C105.066 18.32 103.561 16.5547 103.561 14.4364C103.561 12.3181 105.066 10.5857 107.213 10.5857L107.205 10.5884ZM108.541 13.525C108.52 13.1669 108.362 12.8316 108.101 12.5915C107.841 12.3514 107.499 12.2257 107.148 12.2415C106.272 12.2415 105.708 12.7888 105.614 13.525H108.554H108.541ZM56.9193 10.5857C56.4719 10.5843 56.0294 10.6813 55.6218 10.8702C55.2141 11.059 54.8508 11.3354 54.5565 11.6804V11.1002C54.5558 11.0068 54.5193 10.9174 54.4547 10.8514C54.3902 10.7853 54.3029 10.7479 54.2117 10.7472H53.4419C53.3507 10.7479 53.2634 10.7853 53.1989 10.8514C53.1344 10.9174 53.0978 11.0068 53.0971 11.1002V20.8215C53.1004 20.914 53.1378 21.0019 53.2018 21.0674C53.2657 21.1328 53.3515 21.1711 53.4419 21.1745H54.7115C54.8019 21.1694 54.8873 21.1307 54.9518 21.0657C55.0162 21.0007 55.0553 20.9139 55.0617 20.8215V18.0299C55.6205 18.2284 56.2076 18.331 56.7991 18.3337C58.9588 18.3337 60.3861 16.6341 60.3861 14.4665C60.3808 12.2223 58.8919 10.5857 56.9193 10.5857ZM56.5585 16.5055C56.0312 16.509 55.5131 16.3631 55.0617 16.084V13.4429C55.1952 13.125 55.4203 12.8564 55.7068 12.673C55.9934 12.4896 56.3279 12.4002 56.6654 12.4166C57.7934 12.4166 58.3734 13.4265 58.3734 14.4693C58.3734 15.512 57.748 16.5055 56.5585 16.5055ZM73.7987 10.5857C73.3568 10.5719 72.9177 10.661 72.5144 10.8464C72.1111 11.0318 71.7542 11.3085 71.4706 11.6558V11.1084C71.4699 11.015 71.4333 10.9256 71.3688 10.8596C71.3043 10.7935 71.217 10.7561 71.1258 10.7554H70.2972C70.206 10.7561 70.1187 10.7935 70.0542 10.8596C69.9896 10.9256 69.9531 11.015 69.9524 11.1084V17.8137C69.9577 17.9048 69.9959 17.9906 70.0597 18.0544C70.1234 18.1181 70.2081 18.1553 70.2972 18.1585H71.4572C71.802 18.1585 71.9116 18.0792 71.9116 17.8055V13.5688C72.0149 13.2283 72.2235 12.9314 72.5061 12.7231C72.7887 12.5147 73.1298 12.4062 73.4779 12.4139C74.3547 12.4139 74.7315 13.0078 74.7315 13.9712V17.8027C74.7322 17.8961 74.7688 17.9855 74.8333 18.0516C74.8978 18.1176 74.9851 18.1551 75.0763 18.1558H76.346C76.4364 18.1524 76.5221 18.1141 76.5861 18.0486C76.6501 17.9831 76.6875 17.8953 76.6908 17.8027V13.9712C76.6961 12.173 76.1001 10.5857 73.7987 10.5857ZM86.944 10.5857C86.1045 10.5916 85.2699 10.7159 84.4636 10.9552C84.4177 10.9661 84.3747 10.987 84.3373 11.0163C84.3 11.0456 84.2692 11.0827 84.2469 11.1252C84.2247 11.1676 84.2115 11.2145 84.2083 11.2625C84.2051 11.3106 84.2119 11.3588 84.2283 11.404L84.386 12.225C84.3837 12.2765 84.3936 12.3278 84.4147 12.3746C84.4359 12.4213 84.4678 12.4621 84.5077 12.4936C84.5476 12.525 84.5943 12.5461 84.6438 12.5551C84.6934 12.5641 84.7443 12.5607 84.7923 12.5453C85.4589 12.3752 86.1422 12.2834 86.8291 12.2716C87.5962 12.2716 87.8635 12.7204 87.8314 13.6674C87.3783 13.535 86.91 13.4651 86.4388 13.4594C84.6079 13.4594 83.5574 14.4693 83.5574 15.7857C83.5574 17.373 84.5598 18.32 86.0005 18.32C86.4201 18.3266 86.8367 18.2477 87.2263 18.0879C87.6159 17.9282 87.9706 17.6908 88.2698 17.3895V17.789C88.2705 17.8825 88.307 17.9718 88.3715 18.0379C88.436 18.104 88.5233 18.1414 88.6146 18.1421H89.3202C89.4114 18.1414 89.4987 18.104 89.5632 18.0379C89.6278 17.9718 89.6643 17.8825 89.665 17.789V13.8097C89.6704 11.7899 89.1999 10.5857 86.9467 10.5857H86.944ZM87.7886 16.0594C87.6552 16.2925 87.4658 16.487 87.2385 16.6245C87.0112 16.7619 86.7535 16.8377 86.4896 16.8448C86.3518 16.859 86.2126 16.8423 86.0818 16.7959C85.9509 16.7495 85.8315 16.6745 85.7318 16.576C85.6321 16.4776 85.5545 16.3581 85.5044 16.2259C85.4543 16.0936 85.433 15.9518 85.4418 15.8103C85.4418 15.1535 85.8962 14.7512 86.7248 14.7512C87.0919 14.7556 87.4548 14.8318 87.794 14.9756V16.0703L87.7886 16.0594ZM46.471 7.73663C45.0936 7.74242 43.7747 8.30769 42.804 9.30831C41.8333 10.3089 41.29 11.6631 41.2936 13.0735C41.2936 14.4816 41.8399 15.8321 42.8124 16.8278C43.7848 17.8236 45.1038 18.3829 46.479 18.3829C47.8543 18.3829 49.1732 17.8236 50.1457 16.8278C51.1181 15.8321 51.6644 14.4816 51.6644 13.0735C51.6651 11.6611 51.1188 10.3062 50.1452 9.30571C49.1717 8.30525 47.8503 7.74098 46.471 7.73663ZM46.471 9.79747C47.3151 9.81103 48.1205 10.1623 48.7149 10.776C49.3093 11.3898 49.6456 12.2173 49.6517 13.0817C49.6433 13.7219 49.4503 14.3453 49.0969 14.8736C48.7436 15.4019 48.2456 15.8114 47.6657 16.0508C47.0857 16.2903 46.4496 16.3489 45.8372 16.2193C45.2248 16.0897 44.6635 15.7777 44.2237 15.3225C43.7839 14.8673 43.4853 14.2892 43.3654 13.6608C43.2455 13.0323 43.3097 12.3817 43.5498 11.7905C43.7899 11.1993 44.1953 10.6939 44.715 10.3378C45.2348 9.98179 45.8457 9.79094 46.471 9.78926V9.79747ZM102.292 18.1722C102.383 18.1715 102.471 18.1342 102.536 18.0682C102.601 18.0022 102.638 17.9128 102.639 17.8192V16.5137C102.639 16.4203 102.602 16.3309 102.537 16.2648C102.473 16.1988 102.386 16.1613 102.294 16.1606H102.238C102.158 16.1549 102.082 16.1196 102.025 16.0613C101.968 16.0029 101.934 15.9255 101.928 15.8432V8.10884C101.922 8.01508 101.881 7.92712 101.815 7.86193C101.749 7.79674 101.662 7.75893 101.57 7.75579H100.314C100.224 7.76153 100.139 7.80049 100.075 7.86543C100.011 7.93037 99.9727 8.01687 99.9664 8.10884V16.905C99.9876 17.2357 100.125 17.5472 100.354 17.7817C100.582 18.0163 100.886 18.1579 101.209 18.1804H102.278L102.292 18.1722ZM111.601 12.0909C111.593 11.8975 111.623 11.7044 111.69 11.5232C111.756 11.342 111.858 11.1765 111.989 11.0366C112.12 10.8968 112.277 10.7855 112.451 10.7094C112.625 10.6334 112.812 10.5942 113.001 10.5942C113.19 10.5942 113.377 10.6334 113.551 10.7094C113.725 10.7855 113.882 10.8968 114.013 11.0366C114.143 11.1765 114.245 11.342 114.312 11.5232C114.378 11.7044 114.408 11.8975 114.4 12.0909C114.408 12.2844 114.378 12.4775 114.312 12.6587C114.245 12.8399 114.143 13.0054 114.013 13.1453C113.882 13.2851 113.725 13.3964 113.551 13.4724C113.377 13.5485 113.19 13.5877 113.001 13.5877C112.812 13.5877 112.625 13.5485 112.451 13.4724C112.277 13.3964 112.12 13.2851 111.989 13.1453C111.858 13.0054 111.756 12.8399 111.69 12.6587C111.623 12.4775 111.593 12.2844 111.601 12.0909ZM114.103 12.0909C114.118 11.9335 114.101 11.7746 114.053 11.6244C114.004 11.4742 113.926 11.3361 113.822 11.2189C113.718 11.1017 113.592 11.008 113.451 10.9439C113.309 10.8798 113.157 10.8467 113.002 10.8467C112.848 10.8467 112.695 10.8798 112.554 10.9439C112.412 11.008 112.286 11.1017 112.182 11.2189C112.078 11.3361 112 11.4742 111.951 11.6244C111.903 11.7746 111.886 11.9335 111.901 12.0909C111.89 12.2456 111.911 12.4009 111.962 12.547C112.012 12.6932 112.092 12.8271 112.195 12.9405C112.298 13.0539 112.423 13.1443 112.562 13.2061C112.701 13.268 112.851 13.2999 113.002 13.2999C113.154 13.2999 113.303 13.268 113.442 13.2061C113.581 13.1443 113.706 13.0539 113.809 12.9405C113.913 12.8271 113.992 12.6932 114.043 12.547C114.093 12.4009 114.114 12.2456 114.103 12.0909ZM112.465 11.3H113.029C113.342 11.3 113.609 11.4286 113.609 11.7954C113.61 11.8844 113.585 11.9718 113.537 12.0464C113.49 12.121 113.422 12.1793 113.342 12.2141L113.684 12.8463H113.331L113.064 12.3154H112.759V12.8463H112.454V11.3H112.465ZM112.962 12.069C113 12.0766 113.039 12.0756 113.077 12.0662C113.114 12.0567 113.149 12.039 113.18 12.0143C113.21 11.9895 113.235 11.9584 113.252 11.923C113.269 11.8875 113.279 11.8487 113.28 11.809C113.282 11.7701 113.274 11.7312 113.259 11.6957C113.243 11.6601 113.219 11.6289 113.19 11.6044C113.16 11.5799 113.125 11.5628 113.088 11.5546C113.051 11.5465 113.012 11.5474 112.975 11.5573H112.767V12.0663H112.959L112.962 12.069Z" fill="#5E6374"/>
</g>
<defs>
<clipPath id="clip0_1075_2816">
<rect width="114.4" height="26" fill="white" transform="translate(0 0.0734863)"/>
</clipPath>
</defs>
</svg>
