<svg width="166" height="27" viewBox="0 0 166 27" fill="none" xmlns="http://www.w3.org/2000/svg">
<path fill-rule="evenodd" clip-rule="evenodd" d="M18.2757 0.967324V5.77393C15.9898 4.97437 13.4866 4.50757 11.491 4.50757C9.02758 4.50757 7.65678 5.25814 7.65678 6.60676C7.65678 7.46733 8.25668 8.03765 9.97781 8.81132L14.6069 10.8883C18.3099 12.5522 20.1761 14.9795 20.1761 18.1334C20.1761 23.001 15.963 26.0716 9.28455 26.0716C6.8489 26.0716 4.0315 25.7232 1.04678 25.0484V20.08C4.00561 20.8851 6.7158 21.315 8.82423 21.315C11.5852 21.315 13.0642 20.5459 13.0642 19.1122C13.0642 18.2507 12.4865 17.6176 11.1637 17.0269L6.09741 14.7706C2.34179 13.0957 0.608643 10.8393 0.608643 7.62262C0.608643 3.01291 4.66929 0.0734863 11.0399 0.0734863C13.2703 0.0734863 16.0156 0.412717 18.2757 0.967324ZM23.7811 0.577253H31.2673V25.5679H23.7811V0.577253ZM55.6081 0.577253V5.15554H44.3062V10.7922H54.1791V14.9333H44.3062V20.777H55.7542V25.5679H37.0316V0.577253H55.6081ZM90.9755 0.577253V25.5679H83.7323V9.11913L76.637 25.7629H72.0578L65.0106 9.11913V25.5679H60.009V0.577253H69.1507L75.6138 15.7781L82.0435 0.577253H90.9755ZM115.336 0.577253V5.15554H104.017V10.7922H113.887V14.9333H104.017V20.777H115.463V25.5679H96.724V0.577253H115.336ZM141.704 0.577253V25.5679H133.715L124.72 9.53971V25.5679H119.717V0.577253H127.917L136.719 16.3937V0.577253H141.704ZM163.43 0.967324V5.77393C161.161 4.97991 158.642 4.50757 156.684 4.50757C154.181 4.50757 152.811 5.24612 152.811 6.59937C152.811 7.48119 153.371 8.00807 155.151 8.81225L159.76 10.8893C163.489 12.5706 165.333 14.9767 165.333 18.1676C165.333 23.0093 161.116 26.0735 154.452 26.0735C152.013 26.0735 149.184 25.7232 146.203 25.0502V20.0819C149.158 20.8851 151.863 21.3168 153.958 21.3168C156.7 21.3168 158.22 20.5477 158.22 19.1594C158.22 18.2406 157.687 17.6481 156.301 17.0288L151.255 14.7724C147.476 13.0846 145.763 10.8541 145.763 7.62539C145.763 3.01845 149.826 0.0771817 156.182 0.0771817C158.419 0.0744086 161.175 0.412717 163.43 0.967324Z" fill="#5E6374"/>
</svg>
