<svg width="104" height="27" viewBox="0 0 104 27" fill="none" xmlns="http://www.w3.org/2000/svg">
<g clip-path="url(#clip0_1075_2827)">
<path d="M90.2069 0.0734863C87.6358 0.0734852 85.1224 0.835921 82.9845 2.26438C80.8467 3.69284 79.1804 5.72316 78.1965 8.0986C77.2126 10.474 76.9551 13.0879 77.4567 15.6097C77.9583 18.1314 79.1965 20.4478 81.0145 22.2659C82.8326 24.084 85.149 25.3221 87.6708 25.8237C90.1925 26.3253 92.8064 26.0679 95.1818 25.0839C97.5572 24.1 99.5876 22.4337 101.016 20.2959C102.444 18.1581 103.207 15.6446 103.207 13.0735C103.207 9.62567 101.837 6.31907 99.3993 3.8811C96.9613 1.44313 93.6547 0.0734878 90.2069 0.0734863ZM90.2069 19.1402C86.9567 19.1402 84.5736 16.5402 84.5736 13.0735C84.5736 9.60682 86.9587 7.00682 90.2069 7.00682C93.4569 7.00682 95.8403 9.60734 95.8403 13.0735C95.8403 16.5396 93.4569 19.1402 90.2069 19.1402ZM52.0736 13.0735C52.0736 5.89376 46.4473 0.0734863 39.5069 0.0734863C32.5665 0.0734863 26.9403 5.89376 26.9403 13.0735C26.9403 20.2532 32.5728 26.0735 39.7236 26.0735C45.4352 26.0735 49.9142 22.6214 51.4042 17.8402H43.8403C42.7909 19.3928 41.2479 19.7902 39.7236 19.7902C36.8001 19.7902 34.9372 17.7778 34.3527 15.0235H51.9325C52.0264 14.3777 52.0736 13.726 52.0736 13.0735ZM39.5069 6.14015C42.0144 6.14015 43.9577 7.86746 44.5534 10.4735H34.4505C35.1249 7.7645 36.9204 6.14015 39.5069 6.14015ZM14.3736 25.8568L0.0114746 0.83182H8.46736L14.3736 12.2068L20.2799 0.83182H28.7358L14.3736 25.8568ZM64.6403 25.8568L50.2781 0.83182H58.7341L64.6403 12.2068L70.5466 0.83182H79.0025L64.6403 25.8568Z" fill="#5E6374"/>
</g>
<defs>
<clipPath id="clip0_1075_2827">
<rect width="103.195" height="26" fill="white" transform="translate(0.0114746 0.0734863)"/>
</clipPath>
</defs>
</svg>
