<svg width="92" height="27" viewBox="0 0 92 27" fill="none" xmlns="http://www.w3.org/2000/svg">
<g clip-path="url(#clip0_1075_2819)">
<path d="M21.0398 12.3338C20.9501 14.302 19.5747 16.9982 16.9162 20.4198C14.168 23.9935 11.8423 25.781 9.93914 25.781C8.76134 25.781 7.76424 24.6929 6.94914 22.5154C6.40574 20.5199 5.86104 18.5257 5.31764 16.5302C4.71314 14.354 4.06444 13.2646 3.37024 13.2646C3.21944 13.2646 2.68904 13.5831 1.78294 14.2175L0.832642 12.9916C1.82974 12.1154 2.81384 11.2379 3.78234 10.3591C5.11354 9.2099 6.11194 8.6041 6.77884 8.543C8.35184 8.3922 9.32034 9.4686 9.68434 11.7709C10.0769 14.2565 10.3486 15.8022 10.5007 16.4067C10.9544 18.4685 11.4536 19.4981 11.9983 19.4981C12.4221 19.4981 13.0578 18.8286 13.9054 17.4922C14.7517 16.1545 15.2054 15.1366 15.2665 14.4385C15.3874 13.2841 14.9337 12.7056 13.9054 12.7056C13.4205 12.7056 12.9213 12.8161 12.4091 13.0371C13.4023 9.7819 15.3003 8.1998 18.1031 8.2895C20.1805 8.3506 21.1594 9.6987 21.0398 12.3338Z" fill="#5E6374"/>
<path d="M29.5691 2.56694C29.5392 3.32094 29.1609 4.04374 28.4329 4.73664C27.6165 5.51924 26.648 5.91054 25.5287 5.91054C23.8036 5.91054 22.9703 5.15784 23.0314 3.65244C23.06 2.86984 23.5228 2.11584 24.4146 1.39304C25.3077 0.671538 26.2983 0.308838 27.389 0.308838C28.0247 0.308838 28.5538 0.558438 28.9789 1.05504C29.4014 1.55164 29.599 2.05604 29.5691 2.56694ZM33.5185 18.7116C32.6709 20.3132 31.5061 21.7653 30.0228 23.0653C27.9948 24.819 25.9681 25.6965 23.9401 25.6965C23.0002 25.6965 22.2826 25.3936 21.7834 24.7878C21.2842 24.1833 21.0489 23.3981 21.0801 22.4296C21.1087 21.4325 21.4194 19.8894 22.0096 17.8016C22.5998 15.7151 22.8962 14.5958 22.8962 14.445C22.8962 13.6585 22.6232 13.2646 22.0785 13.2646C21.8978 13.2646 21.3817 13.5831 20.5341 14.2175L19.4902 12.9916C20.4587 12.1154 21.4272 11.2379 22.3957 10.3591C23.697 9.20994 24.6655 8.60414 25.3025 8.54304C26.3009 8.45334 27.0341 8.74714 27.5034 9.42574C27.9714 10.1056 28.1456 10.9857 28.026 12.0712C27.6321 13.9107 27.2083 16.2468 26.7546 19.0808C26.7234 20.3782 27.1927 21.0256 28.1612 21.0256C28.585 21.0256 29.3416 20.5784 30.431 19.6827C31.3397 18.9365 32.0807 18.2345 32.6566 17.5767L33.5185 18.7116Z" fill="#5E6374"/>
<path d="M61.8689 18.7104C61.0214 20.3133 59.8566 21.7641 58.3733 23.0641C56.3453 24.8178 54.3172 25.6953 52.2905 25.6953C50.3223 25.6953 49.3694 24.6072 49.4305 22.4284C49.4591 21.4599 49.6489 20.2977 49.9973 18.9366C50.3444 17.5742 50.5343 16.516 50.5641 15.7594C50.5954 14.6115 50.2457 14.0356 49.5163 14.0356C48.7273 14.0356 47.786 14.9742 46.6927 16.8501C45.5396 18.8183 44.9156 20.7241 44.8259 22.5701C44.7609 23.8727 44.891 24.8711 45.2069 25.5666C43.0957 25.6277 41.6163 25.2793 40.7726 24.5227C40.016 23.8571 39.6701 22.7534 39.7312 21.209C39.7572 20.2405 39.908 19.272 40.1771 18.3035C40.4437 17.335 40.5919 16.4731 40.6218 15.7152C40.6868 14.5959 40.2734 14.0356 39.3946 14.0356C38.6367 14.0356 37.8176 14.8988 36.9402 16.6239C36.0614 18.3477 35.5765 20.1495 35.4855 22.0254C35.4205 23.7219 35.5375 24.901 35.8105 25.5666C33.7331 25.6277 32.2575 25.1896 31.3852 24.2536C30.6598 23.4697 30.3296 22.2776 30.3907 20.6773C30.4167 19.8934 30.5584 18.7988 30.808 17.3961C31.0576 15.9921 31.1967 14.8988 31.2253 14.1136C31.2903 13.5715 31.1473 13.2985 30.8171 13.2985C30.6351 13.2985 30.1203 13.6053 29.2727 14.2176L28.1833 12.9917C28.3354 12.8721 29.2871 11.9933 31.0434 10.3592C32.3148 9.18006 33.1767 8.57426 33.6304 8.54436C34.4182 8.48326 35.0525 8.80826 35.5374 9.51936C36.021 10.2305 36.2641 11.056 36.2641 11.9933C36.2641 12.2962 36.2381 12.5835 36.1732 12.8565C36.6269 12.161 37.156 11.5539 37.7618 11.0391C39.154 9.83006 40.7128 9.14756 42.4379 8.99676C43.9212 8.87586 44.9794 9.22296 45.6164 10.0407C46.1299 10.7063 46.3716 11.6605 46.3417 12.9007C46.5536 12.72 46.7812 12.5224 47.0243 12.3105C47.7185 11.4941 48.3997 10.8441 49.0653 10.3592C50.1846 9.54146 51.3519 9.08776 52.5609 8.99676C54.0143 8.87586 55.0582 9.22166 55.6939 10.0368C56.2374 10.6998 56.4805 11.6501 56.4207 12.8851C56.3895 13.7301 56.1854 14.9586 55.8071 16.5719C55.4275 18.1852 55.2403 19.1108 55.2403 19.3526C55.2091 19.987 55.2702 20.4238 55.4209 20.6643C55.5731 20.9061 55.9345 21.0257 56.5104 21.0257C56.9342 21.0257 57.6895 20.5785 58.7801 19.6815C59.6875 18.9366 60.4299 18.2346 61.0058 17.5768L61.8689 18.7104Z" fill="#5E6374"/>
<path d="M68.5874 13.9238C68.616 13.1113 68.2845 12.7044 67.5903 12.7044C66.6829 12.7044 65.7612 13.3297 64.8252 14.579C63.8879 15.8283 63.4043 17.0256 63.3744 18.1696C63.3575 18.1696 63.3575 18.3659 63.3744 18.7572C64.8551 18.2151 66.1395 17.3883 67.2276 16.2729C68.1038 15.3096 68.5562 14.5257 68.5874 13.9238ZM78.8925 18.6636C78.015 20.1157 76.2899 21.5652 73.7172 23.016C70.5101 24.8594 67.2549 25.7798 63.9568 25.7798C61.5063 25.7798 59.7487 24.9634 58.6905 23.3293C57.9339 22.21 57.5712 20.8788 57.6011 19.3357C57.631 16.8852 58.7217 14.5556 60.8706 12.3456C63.2301 9.92498 66.0147 8.71338 69.2231 8.71338C72.1897 8.71338 73.7627 9.92238 73.9447 12.3365C74.0656 13.8757 73.218 15.4617 71.4019 17.0919C69.4649 18.8742 67.0274 20.0052 64.0933 20.4875C64.6367 21.2428 65.4531 21.6198 66.5438 21.6198C68.7226 21.6198 71.099 21.066 73.6717 19.9571C75.5177 19.1784 76.9711 18.3698 78.0306 17.5313L78.8925 18.6636Z" fill="#5E6374"/>
<path d="M86.0854 15.4498C86.1153 14.6308 86.0022 13.8807 85.7448 13.1982C85.4874 12.517 85.1156 12.1738 84.6333 12.1738C83.0889 12.1738 81.8175 13.0084 80.8204 14.6763C79.9715 16.0413 79.5165 17.4973 79.458 19.0417C79.4268 19.8009 79.5633 20.4691 79.8662 21.0437C80.1977 21.7119 80.667 22.0447 81.2741 22.0447C82.6352 22.0447 83.8013 21.2426 84.7698 19.6345C85.5862 18.2994 86.0243 16.9045 86.0854 15.4498ZM91.2152 15.6214C91.0943 18.4021 90.066 20.8045 88.129 22.8286C86.192 24.8527 83.7844 25.8654 80.9101 25.8654C78.5194 25.8654 76.7033 25.0945 75.4631 23.5527C74.5557 22.4048 74.0552 20.9696 73.9655 19.2484C73.8121 16.6484 74.7507 14.2616 76.78 12.0854C78.9588 9.66872 81.6966 8.45972 84.996 8.45972C87.1137 8.45972 88.7179 9.17082 89.8086 10.5904C90.8382 11.8904 91.3062 13.5674 91.2152 15.6214Z" fill="#5E6374"/>
</g>
<defs>
<clipPath id="clip0_1075_2819">
<rect width="91" height="26" fill="white" transform="translate(0.603882 0.0734863)"/>
</clipPath>
</defs>
</svg>
