<svg width="26" height="25" viewBox="0 0 26 25" fill="none" xmlns="http://www.w3.org/2000/svg">
<path fill-rule="evenodd" clip-rule="evenodd" d="M22.3401 4.96808C23.3217 5.23236 24.0957 6.00631 24.36 6.98792C24.8319 8.78123 24.8319 12.5 24.8319 12.5C24.8319 12.5 24.8319 16.2188 24.36 18.0121C24.0957 18.9937 23.3217 19.7676 22.3401 20.0319C20.5468 20.5038 13.3736 20.5038 13.3736 20.5038C13.3736 20.5038 6.2003 20.5038 4.40699 20.0319C3.42538 19.7676 2.65142 18.9937 2.38715 18.0121C1.91522 16.2376 1.91522 12.5 1.91522 12.5C1.91522 12.5 1.91522 8.78123 2.38715 6.98792C2.65142 6.00631 3.42538 5.23236 4.40699 4.96808C6.2003 4.49615 13.3736 4.49615 13.3736 4.49615C13.3736 4.49615 20.5468 4.49615 22.3401 4.96808ZM17.0356 12.5189L11.0705 15.9545V9.06438L17.0356 12.5189Z" fill="#606E92"/>
</svg>
